<?xml version="1.0" encoding="utf-8"?>
<!-- Generator: Adobe Illustrator 25.2.0, SVG Export Plug-In . SVG Version: 6.00 Build 0)  -->
<svg version="1.1" id="Layer_1" xmlns="http://www.w3.org/2000/svg" xmlns:xlink="http://www.w3.org/1999/xlink" x="0px" y="0px"
	 viewBox="0 0 16 16" style="enable-background:new 0 0 16 16;" xml:space="preserve">
<style type="text/css">
	.st0{fill:#FEF9F2;}
	.st1{fill:#232626;}
</style>
<g>
	<rect x="3.2" y="3.5" class="st0" width="9.7" height="8.5"/>
	<g>
		<path class="st1" d="M15.9,8c0,4.4-3.5,7.9-7.9,7.9S0.1,12.3,0.1,8S3.6,0.1,8,0.1S15.9,3.6,15.9,8z M6,4.3c-0.3,0-0.4,0-0.6,0
			c-0.2,0-0.3,0-0.6,0c-0.2,1.9-0.6,4.6-1,6.7c0.3,0,0.4,0,0.6,0c0.2,0,0.3,0,0.6,0c0-0.7,0.2-3.2,0.4-4.1c0.3,0.6,0.4,0.8,0.5,1
			l0.4,0.9c0.8,1.8,0.8,1.9,1,2.2c0.1,0,0.2,0,0.3,0c0.1,0,0.2,0,0.3,0c0.3-0.7,0.4-1,0.5-1.1C8.5,9.6,8.8,9,9.3,8l0.4-0.9
			c0,0,0.1-0.2,0.1-0.2l0,0.2C9.9,8.6,10,9.4,10.1,11c0.3,0,0.6,0,0.9,0c0.3,0,0.5,0,1,0c-0.5-2.9-0.7-4.1-0.9-6.7
			c-0.3,0-0.4,0-0.6,0c-0.2,0-0.4,0-0.6,0C9.5,5.5,8.6,7.5,8,8.7C7,6.8,6.8,6.2,6.1,4.5L6,4.3z"/>
	</g>
</g>
</svg>
