<?xml version="1.0" encoding="utf-8"?>
<!-- Generator: Adobe Illustrator 25.2.0, SVG Export Plug-In . SVG Version: 6.00 Build 0)  -->
<svg version="1.1" id="Layer_1" xmlns="http://www.w3.org/2000/svg" xmlns:xlink="http://www.w3.org/1999/xlink" x="0px" y="0px"
	 viewBox="0 0 350 612" style="enable-background:new 0 0 350 612;" xml:space="preserve">
<style type="text/css">
	.st0{enable-background:new    ;}
	.st1{fill:#232626;}
	.st2{fill:#DBBFBE;}
	.st3{fill:#BDD6D8;}
</style>
<g>
	<g class="st0">
		<path class="st1" d="M186.9,319.7v3.3c-3,2.8-5.6,5.1-7.7,6.9c-2.1,1.7-4.2,3.3-6.3,4.7c-2.1,1.4-3.8,2.4-5.2,3
			c-1.4,0.6-2.6,0.9-3.6,0.9c-2.4,0-4.3-0.9-5.8-2.6c-1.5-1.8-2.2-4-2.2-6.8c0-3.2,0.6-6.3,1.9-9.5c1.3-3.1,3.1-6.3,5.5-9.7
			c2.4-3.3,5.4-7.1,9-11.2c2.7-3.1,4-4.8,4-5.2c0-0.2-0.1-0.4-0.2-0.6c-0.2-0.2-0.3-0.2-0.5-0.2c-0.6,0-2.5,1.3-5.6,4
			s-7.1,6.6-12,11.8c-4.9,5.2-10.2,11.4-15.8,18.5c-0.3,0.4-1.3,1.7-3,3.9c-1.7,2.2-2.9,3.7-3.6,4.3c-0.7,0.7-1.3,1-1.8,1
			c-0.9,0-1.7-0.9-2.3-2.7c-0.7-1.8-1-3.7-1-5.8c0-1.2,0.4-2.6,1.2-4c0.8-1.4,2.6-4,5.3-7.7c2.7-3.7,5-6.8,6.8-9.4
			c1.8-2.5,3.7-5.6,5.9-9.3c1.5-2.5,2.6-4.5,3.3-6c0.7-1.5,1.1-2.8,1.1-4c0-1-0.3-1.5-0.9-1.5c-1.2,0-3.5,1.6-6.8,4.8
			c-3.3,3.2-7.5,8-12.4,14.4c-4.9,6.4-10.1,13.7-15.4,22.1c-1.8,2.9-3,4.8-3.7,5.8c-0.7,1-1.5,1.5-2.4,1.5c-1.1,0-2.2-1.2-3.1-3.6
			c-1-2.4-1.5-4.3-1.5-5.8c0-0.5,0.2-1,0.6-1.6c4.2-5.6,7.7-10.4,10.4-14.3c2.7-3.9,5.1-7.6,7.2-11.2c2.1-3.5,3.6-6.4,4.6-8.7
			c1-2.3,1.4-4.1,1.4-5.4c0-1.4-0.6-2.1-1.9-2.1c-1,0-2.8,0.7-5.2,2c-2.5,1.3-5.5,3.1-9.3,5.3c-3.7,2.3-6.7,4-9,5.2
			s-3.9,1.8-5.1,1.8c-1.1,0-1.6-0.6-1.6-1.8c0-0.7,0.2-2.2,0.7-4.6c0.4-2.4,0.9-4.1,1.4-5.1c0.7-1.3,2.4-3,5.1-5.1
			c2.8-2.1,4.3-3.2,4.6-3.2c0.3,0,0.4,0.1,0.4,0.3c0,0.1-0.1,0.3-0.4,0.6c-1.3,1.1-2.3,1.9-2.9,2.6s-1,1.4-1.2,2.2
			c5.8-3.5,11-6.2,15.6-8c4.6-1.8,7.8-2.7,9.6-2.7c0.9,0,1.7,0.6,2.5,1.8s1.5,2.6,2,4.2c0.6,1.6,0.8,2.6,0.8,3
			c0,1.6-0.4,3.5-1.2,5.8c-0.8,2.2-2,4.8-3.4,7.7c-1.4,2.9-3.2,6.6-5.3,11c1.7-2.1,3.2-4.1,4.7-5.9c1.5-1.8,3-3.6,4.5-5.3
			s3-3.5,4.5-5.2c2.1-2.4,4.4-4.7,7-6.9s5-4,7.2-5.3c2.2-1.4,3.8-2.1,4.6-2.1c1.1,0,2.1,0.6,3,1.8c0.9,1.2,1.3,2.5,1.3,3.9
			c0,0.9-0.6,2.7-1.8,5.3c-1.2,2.6-3,6-5.3,10c-2.3,4.1-5.4,9.3-9.2,15.8c3.6-3.9,7.4-7.8,11.3-11.9c3.9-4.1,6.8-7.1,8.7-8.9
			c1.9-1.9,3.5-3.3,4.8-4.3c1.8-1.3,3.5-2.8,5.3-4.3c1.8-1.5,3.2-2.8,4.2-3.7c1-0.9,1.9-1.6,2.7-2.1s1.5-0.7,2.2-0.7
			c0.8,0,1.9,1,3.1,2.9c1.3,1.9,1.9,3.1,1.9,3.7c0,0.7-0.4,1.5-1.1,2.4c-0.7,0.9-2.3,2.6-4.7,5.2c-4.3,4.6-8.1,9.3-11.3,14.1
			c-3.2,4.7-5.6,9-7.2,12.9c-1.6,3.9-2.5,7-2.5,9.2c0,1.4,0.3,2.4,0.8,3.1c0.5,0.6,1.3,1,2.5,1c1,0,2-0.2,2.8-0.6
			c0.9-0.4,1.8-0.9,2.9-1.6c1.1-0.7,2.1-1.4,3-2c1.3-0.8,2.7-1.6,3.9-2.6c1.3-0.9,2.3-1.6,3-2.1C186,320.3,186.5,320,186.9,319.7z"
			/>
		<path class="st1" d="M193.3,362.4l-1.7-1.5c-1-1-1.5-2.1-1.5-3.2c0-1.1,0.8-2.8,2.3-5.1s3.8-5,6.9-8c3.1-3,7-6.2,11.7-9.5
			s10.1-6.5,16.1-9.5c-0.4-2.3-1-3.9-1.9-4.7c-0.9-0.8-2.5-1.2-4.7-1.2c-1.8,0-5,1-9.6,2.9c-4.6,1.9-8.6,4.3-12.1,7.2
			c-1.3,1.1-2.3,1.7-2.8,1.7c-0.6,0-1-0.5-1-1.6c0-1.8,0.5-3.8,1.6-6.1c1-2.3,2.3-4.1,3.8-5.4c2.1-1.8,5.3-3.7,9.6-5.7
			c4.7-2.2,8.9-4.6,12.8-7.2c3.9-2.6,6.8-5.1,9-7.3c2.1-2.3,3.2-4,3.2-5.1c0-1.2-1.2-1.9-3.6-1.9c-3.1,0-6.8,0.7-10.9,2.1
			c-4.2,1.4-8.8,3.5-13.9,6.5s-10.5,6.6-16.1,10.9c0.3-4.4,0.6-7.9,1.1-10.5c0.5-2.6,1.3-4.7,2.4-6.3c1.1-1.6,2.5-3.1,4.3-4.3
			c1.8-1.2,4.4-2.8,7.9-4.8c9.6-5.4,17.7-8.1,24.2-8.1c3.9,0,7.1,1,9.4,2.9s3.4,4.7,3.4,8.3c0,2.5-0.5,4.8-1.6,6.9
			c-1,2.1-2.5,4.1-4.5,5.9s-4.3,3.6-7,5.2c-2.7,1.6-5.9,3.4-9.7,5.3c4.2,0.2,7.3,1.1,9.2,2.8c1.9,1.7,3.1,4.7,3.7,9.1l6.3-2.6v3.6
			l-6.5,3.1c-1.2,5.4-3.5,10.3-6.7,14.9c-3.2,4.6-6.8,8.4-10.8,11.6s-7.8,5.7-11.5,7.4c-3.7,1.8-6.4,2.6-8.3,2.6
			C194.7,363.3,194,363,193.3,362.4z M225.9,330.4c-3.7,1.6-7.3,3.7-10.8,6.3c-3.5,2.6-6.5,5.2-9.1,7.7c-2.5,2.5-4.6,4.9-6.3,7.1
			c-1.6,2.2-2.5,3.6-2.5,4.3c0,0.6,0.4,0.9,1.3,0.9c1.4,0,4-1.1,7.7-3.4c3.7-2.3,7.6-5.6,11.7-10c2.7-3,4.6-5.3,5.5-7.1
			C224.4,334.4,225.2,332.5,225.9,330.4z"/>
	</g>
	<g>
		<g>
			<g>
				<g>
					<g>
						<path class="st2" d="M272.4,306.7c0,0.9,0.4,0.6,0.5,0.7C272.8,305.9,272.3,306.8,272.4,306.7z"/>
						<polygon class="st2" points="270.2,291.7 270.4,291.9 269.6,289.8 						"/>
						<path class="st2" d="M267,277.9c-0.3,1.5,1.6,4.9,1.8,7.4l-0.1,0.4l0.8,1c-0.4-1.5-0.9-3.2-1.4-4.8
							C267.6,280.4,267.2,278.9,267,277.9z"/>
						<path class="st2" d="M265.9,270.2c-0.1,0.5-0.8-1.5,0.6,1.7c0-0.2,0-0.2,0-0.3C266.3,271.3,266.1,270.9,265.9,270.2z"/>
						<path class="st2" d="M266.4,271.5C267,273,266.2,270.5,266.4,271.5L266.4,271.5z"/>
						<path class="st2" d="M263.5,265.2l1,1.7c0-0.5-0.7-2.1-0.3-1.5C263.2,263.5,263.3,264,263.5,265.2z"/>
						<path class="st2" d="M262.2,263.7c0.2,0.3,0.4,0.6,0.5,0.9C262.8,264.4,262.7,264.1,262.2,263.7z"/>
						<path class="st2" d="M263.9,266.5l-1.1-1.9c0,0.3-0.2,0.4,0.5,0.9C263,265.4,263.4,265.7,263.9,266.5z"/>
						<path class="st2" d="M264.3,267.6c0.3,1.1,0.8,2.5-0.2,0.7c0.8,1.7,1.2,2.4,1.3,2.2C265.4,270.4,265.1,269.3,264.3,267.6z"/>
						<path class="st2" d="M266,277.4c0.1,0.5,0.2,1,0.2,1.5l0.6,1.1c-0.1-0.3-0.3-1-0.4-1.6C266.3,277.8,266.1,277.3,266,277.4z"/>
						<path class="st2" d="M257.9,254.1c-0.2,0,0,0.8-0.1,1c0.3,0.4,0.6,0.8,0.9,1.2C258.5,255.5,257.8,254.3,257.9,254.1z"/>
						<path class="st2" d="M257.8,255.1l-1.4-1.7C257.5,255,257.8,255.3,257.8,255.1z"/>
						<path class="st2" d="M261.4,263.7c0.7,1,1.3,2,2,3c-0.8-1.2-1.5-2.5-2.3-3.6L261.4,263.7z"/>
						<path class="st2" d="M253.1,247.1l1,0.8c-0.6-0.5-1.1-1-1.8-1.5L253.1,247.1z"/>
						<path class="st2" d="M249.6,242.7c0.8,0.5-0.5-1.3,0.3-0.6c-1.1-1.1-2.1-2-3-2.7C247.8,240.2,248.7,241.3,249.6,242.7z"/>
						<path class="st2" d="M245.3,238.2c0.5,0.4,1,0.8,1.6,1.2C246.4,239,245.9,238.6,245.3,238.2z"/>
						<path class="st2" d="M254.4,250.2c0-0.2,0-0.6-0.6-1.7l0.1,0.9C254.1,249.7,254.2,250,254.4,250.2z"/>
						<path class="st2" d="M253.9,249.5L253.9,249.5c-0.5-0.8-0.9-1.3-1.1-1.6C253,248.2,253.3,248.6,253.9,249.5z"/>
						<path class="st2" d="M254.5,250.4c-0.1-0.1-0.1-0.1-0.1-0.2C254.4,250.3,254.4,250.4,254.5,250.4z"/>
						<path class="st2" d="M259,258.5c-0.9-1-2.4-3.2-1.4-0.8C258.3,258.4,257.8,257,259,258.5z"/>
						<path class="st2" d="M254.7,251.6c0.4,0.6,0.8,1.3,1.2,2c0.1-0.1,0-0.5,0.4-0.1C255.8,252.9,255.3,252.2,254.7,251.6z"/>
						<polygon class="st2" points="253.9,250.7 254.7,251.6 254.2,250.9 						"/>
						<path class="st2" d="M247.7,241.4c-0.4-0.3-0.8-0.7-1.2-1.1c-0.4-0.4-0.8-0.8-1.3-1.2c0.9,1,1.8,2.1,2.6,3.1
							C248.1,242.2,248.7,242.5,247.7,241.4z"/>
						<path class="st2" d="M250.8,245.3c-0.1-0.1-0.1-0.1-0.2-0.2C250.7,245.3,250.8,245.4,250.8,245.3z"/>
						<path class="st2" d="M236.4,230.7c0,0.1,0.1,0.1,0.1,0.2c0,0,0.1,0,0.1,0L236.4,230.7z"/>
						<path class="st2" d="M248,242.4c0.6,0.8,1.1,1.2,1.5,1.5c-0.5-0.5-1.1-1.1-1.6-1.8C247.8,242.2,247.7,242.2,248,242.4z"/>
						<path class="st2" d="M242.8,235.9c0.3,0.4,0.7,0.9,1.1,1.4C243.6,236.8,243,235.9,242.8,235.9z"/>
						<path class="st2" d="M250.5,244.8c0,0,0.1,0.1,0.1,0.1C250.5,244.6,250.5,244.7,250.5,244.8z"/>
						<path class="st2" d="M250.5,244.8c-0.4-0.4-0.7-0.6-1-0.9c0.4,0.5,0.8,0.9,1.1,1.2C250.6,245,250.6,244.9,250.5,244.8z"/>
						<path class="st2" d="M231.8,230.6c0.2-0.1,0.8,0.2,1.6,0.7c0.8,0.5,1.7,1.3,2.4,2.2c1.8,1.2,1.6-0.7,0.6-2.5
							c-0.2,0.1-0.2,0.2-2.2-1.1c0.5,0.6,3.6,3.6,1.9,2.7c-1.2-0.9-1.7-1.3-1.9-1.6s-0.4-0.6-0.9-1.1c0.7,1.1-3.4-1.8-3.4-0.8
							c0.8,0.4,1.5,0.9,2.2,1.4C232.2,230.5,231.3,230,231.8,230.6z"/>
						<path class="st2" d="M239.8,233.8l0.7,0.6c-0.7-0.8-1.2-1.4-2.1-2.6c-1.3-0.9-1.7-1-1.8-1c1.2,1,2.4,2,3.5,3.1L239.8,233.8z"
							/>
						<path class="st2" d="M243.5,237.4c-0.8-0.3-2.6-1.6-1.9-0.4c2,1.9,1.6,1.1,2.9,2.2C241.4,236,245.6,239.9,243.5,237.4
							c0.6,0.6,1.2,1.2,1.7,1.7c-0.5-0.6-1-1.2-1.5-1.8c0,0,0,0.1,0.1,0.1l0,0h0c0.1,0.2,0.1,0.2,0,0.1c0,0-0.1-0.1-0.1-0.1
							C243.7,237.4,243.6,237.4,243.5,237.4c-0.8-1-0.1-0.2,0.3,0c0,0,0.1,0,0.1,0c0,0,0,0,0,0c-1.1-1-2.3-2-3.4-3
							C241.1,235.1,242,235.9,243.5,237.4z"/>
						<path class="st2" d="M255.6,256.2c0-0.1,0-0.1,0-0.2C255.4,255.8,255.3,255.7,255.6,256.2z"/>
						<path class="st2" d="M254.8,254.5c0.2,0.2,0.5,0.4,1,1.3c0.4,0.8-0.2,0.1-0.3,0.2c0.4,0.5,1.4,1.7,0.6-0.1l-0.2-0.2
							c-0.8-1.6-1.6-3.8-1.4-3.6C254.5,252.8,254.5,253.3,254.8,254.5z"/>
						<path class="st2" d="M249.5,245.7c-0.8-0.9-1.7-1.8-2.5-2.7l0.9,1.7l0.1-0.2C249.3,246.1,249.2,245.6,249.5,245.7z"/>
						<path class="st2" d="M236.2,230.3l0.7,0c-0.7-0.3-1.4-0.6-2.1-0.9L236.2,230.3z"/>
						<path class="st2" d="M232.4,227.3l0.4-0.2c-0.4-0.2-0.8-0.4-1.2-0.6L232.4,227.3z"/>
						<path class="st2" d="M90.6,356l0.6,0.9C90.9,356.4,90.8,356.1,90.6,356z"/>
						<path class="st2" d="M87,349.3l-0.3-0.1C87,349.5,87.2,349.5,87,349.3z"/>
						<path class="st2" d="M119.8,222.4c-1.5,0.6-3.4,1.1-3,1.3l0.7,0.1C118.4,223.2,119.2,222.7,119.8,222.4z"/>
						<path class="st2" d="M76.9,288.3c0.1-0.1,0.1-0.3,0.2-0.4c-0.1-0.4-0.1-0.8-0.2-1.1C77,287.2,76.9,287.8,76.9,288.3z"/>
						<path class="st2" d="M78.5,289.7l-0.6,1.9C78.1,291.2,78.3,290.6,78.5,289.7z"/>
						<path class="st2" d="M118.9,385.6c0.4,0.1,0.8,0.2,1.2,0.3C118.6,384.8,119.2,385.5,118.9,385.6z"/>
						<path class="st2" d="M186.7,208.6c-1.4-0.3-2.4-0.6-3.4-0.7C184.9,208.4,186.2,208.9,186.7,208.6z"/>
						<path class="st2" d="M85.1,355.6c0.4,0.5,0.6,0.8,0.7,0.7C85.4,355.7,85.1,355.4,85.1,355.6z"/>
						<path class="st2" d="M179.3,207.6c0.2,0.1,0.5,0.1,0.7,0.2c1,0,2,0,3.3,0.2C182.1,207.6,180.7,207.4,179.3,207.6z"/>
						<path class="st2" d="M251.3,360.6c0.1-0.1,0.1-0.2,0.2-0.3C251.5,360.3,251.4,360.4,251.3,360.6z"/>
						<path class="st2" d="M271,320.7c0,0.5-0.1,1.2-0.2,1.9C270.9,322.3,270.9,321.7,271,320.7z"/>
						<path class="st2" d="M215.7,217C216.6,217.4,215.9,217,215.7,217L215.7,217z"/>
						<path class="st2" d="M219.4,220.8c-0.2-0.1-0.4-0.1-0.5,0C219,220.7,219.2,220.7,219.4,220.8z"/>
						<path class="st2" d="M169.1,210.1C169.1,210.1,169.1,210.1,169.1,210.1C169.3,210.2,169.3,210.2,169.1,210.1z"/>
						<path class="st2" d="M217,217.9c-0.3-0.2-0.7-0.5-1.1-0.7C216.1,217.3,216.4,217.5,217,217.9z"/>
						<path class="st2" d="M216.9,217.6c0.3,0.2,0.6,0.3,0.8,0.4C217.8,218,217.8,217.9,216.9,217.6z"/>
						<path class="st2" d="M214.4,216.4c0.5,0.2,1,0.5,1.5,0.7c-0.2-0.1-0.2-0.2-0.2-0.2C215.4,216.9,215,216.7,214.4,216.4z"/>
						<path class="st2" d="M185.1,402.8c0.1,0,0.1,0,0.2,0C186.3,402.5,185.9,402.6,185.1,402.8z"/>
						<path class="st2" d="M102.5,242.5c0,0,0-0.1,0.1-0.1C102.5,242.4,102.5,242.5,102.5,242.5L102.5,242.5z"/>
						<path class="st2" d="M100.4,245.4c0.6-1.5,1.2-2.1,2.1-2.9c-0.6,0-1.2,0-1.7,0L100.4,245.4z"/>
						<path class="st2" d="M101.4,370.5l-1.3-2.1c2.4,1.8,3.7,3.6,2.6,1.5c-0.6,0.3-2.2-1.4-3.8-3.3c-0.8-0.9-1.5-1.9-2.2-2.5
							c-0.6-0.7-1.1-1.1-1.4-1l-0.7-1.5c0.3,0.4,0.4,0.4,0.6,0.8c-1.3-2.9-2.2-1.4-4.2-4.9c-0.7-1.3-1-2.2-0.3-1.5l-1.9-2.6
							c-0.4-0.8-0.1-0.7,0.3,0.1c-0.8-1.4-1.6-2.8-2.3-4.3l0.1,0c-0.5-0.5-1.4-1.8-1.9-2.5c-0.3-1.2,0.4,0.5,0.4,0.1
							c-0.5-0.8-1-1.5-1.4-2.3c0-0.6,0.2-0.4,0.6,0.2c0.4,0.5,0.9,1.5,1.2,2.3c0.1-1.4-0.2-1.9-0.7-2.7c-0.5-0.8-1.2-1.9-1.8-4.6
							c0.3,0.8,0.7,1.5,1.1,2.3c0.1-0.9-0.2-1.8-0.4-2.8s-0.6-2.2-0.8-3.6c0,0.7,0.7,5.8-0.6,3.1c-0.2-0.8-0.5-1.9-1.2-3.3
							c0.5-0.2-0.1-1.6-0.6-3.4l0.7,0c-0.8-1.9-0.9-1.7-1.5-2.8c-0.5-2.3-0.1-2.8,0.2-3.5c-0.6-3.6-0.3,2.7-1.2-1.6
							c-0.1-0.8-0.2-1.5-0.3-2.2c-0.1-0.7-0.2-1.4-0.3-2c-0.2-1.4-0.6-2.8-0.9-4.6c0.1-2.2,0.4,0.4,0.5-0.4l-0.7-1.9
							c0-0.5,0.1-0.3,0.2-0.2c-0.3-1.6-0.7-0.1-0.9-2.6c-0.3-0.3-0.2-1.7,0.1-3.3c0.3-1.6,0.5-3.5,0.2-5.1c0.2-0.8,0.4,0.4,0.6,0.2
							c-0.2-4.3-0.1-3.7-0.4-7.3c0.3-1,0.5-2,0.9-2.9c-0.9,2.1-0.9-0.8-0.9-3.4c-0.4,0.7-0.7,1.4-0.9,1.8c0.1-1.4,0.2-2.7,0.5-4.1
							c0.2-0.5,0.3,0,0.4,0.7c0-0.3,0-0.5,0-0.8c0.6-1.4,0.8-0.5,0.9,0.5c-0.2,0.5-0.5,0.9-0.7,1.3c0.2,1.1,0.5,2,0.9,1.9
							c0-0.3,0-0.8,0.1-1.3c0.1,0.3,0.1,0.5,0.2,0.4c0.1-0.1,0-0.6,0-1.2l0.9-0.7l-0.2-0.3c0.5-1.7,1.1-3.3,1.7-4.9
							c0.1-0.9,0.1-1.9,0.2-2.8c0.1-0.9,0.2-1.9,0.3-2.9c0.1-1,0.3-2.1,0.6-3.3s0.6-2.5,1.2-3.9c-0.1,1.6,0.7,0.6,1.2,1
							c-0.6,0.6-1,1.7-1.3,3c-0.2,0.6-0.4,1.3-0.6,2c-0.2,0.7-0.4,1.4-0.7,2.2c0.6-1.5,0.7-1.1,0.7-0.6c0.3-1.8,0.9-3.5,1.4-5.3
							c0.4,0.3,0.8-0.9,1.6-2.1c-0.7,0.3-0.4-0.7,0.1-2c0.5-1.4,1.4-3,1.8-4c0.4,0,0.4,0.7-0.9,3c2.1-2.3,0.7-4,2.7-6.3
							c-0.3,0.6-0.6,0.9-0.5,1.2c0.3-0.7,0.9-1.9,1.5-2.8c0.6-0.9,1.1-1.4,1-0.9l-0.3,0.6c0.6-0.9,1.4-2.1,2.2-3.3
							c0.8-1.2,1.7-2.5,2.5-3.7c1.6-2.4,3-4.4,2.9-4.9c0.1,0,0.4,1.1,0.4,1.4c0.9-2.6,1.9-5.2,3.1-7.8c0.1,1,3.1,0.3,0.9,3.2
							c0.8-0.7,1.7-1.6,3.1-3.3c-0.6,0.4-2,0.5-1.4-0.2c2.5-1.3,1.6-1,4.6-2.7c-0.9,0.6-0.8-1,0.5-2.1c-0.1,0.3,0.8,0.8,0.4,1.3
							c0.8-1.2,1.6-2.4,2.5-3.6c-0.7,0.8,0.4,0.9,1.4,0.5c-0.2,0.1,0.5-0.5,1.3-1.2c0.9-0.6,2-1.4,2.4-1.7l-1.6,0.8
							c3.9-2.6,2.9-4,7.1-6.5c-0.4,0.5-0.5,1.9,1.7,0.9c0.6-1.1,2.9-4.9,6.7-7.1l0.9,0c0.9-0.6,1.9-1.1,2.9-1.6
							c-0.8,0.7-2.3,2.2-3.9,3.6c-1.6,1.4-3.2,3.1-4.4,4.1c1.7-0.6,0.6,0.1,3-1.1c1-0.1-1.1,1.1-1.8,1.4c1.9-0.9,3.7-1.8,5.6-2.5
							c-0.3-0.2,0.7-0.9,1.8-1.5c1-0.6,2.1-1.1,1.9-1.4c-2,1-3.9,2.2-5.9,3.3c-0.3-0.2,0.4-1.1,1.7-2.1c0.6-0.5,1.4-1.1,2.3-1.5
							s1.9-0.9,2.9-1.3c1.1-0.2-0.4,1.4-0.2,1.6c0.2-0.2,1.1-0.7,2.1-1.1c0.9-0.4,1.9-0.7,2.1-0.7l-1.6,0.9c1.2-0.3,2.1-0.8,3-1.3
							c0.9-0.5,2-0.9,3.5-1c1-0.3,3.1,0.1,3.2-0.3c-1.8-0.4-2.7-2.6-1.7-3.4c0.2,0,1.6-0.1,3.1-0.3c1.5-0.1,3.1-0.1,3.7,0
							c1.8,0.3-2.2,1.9-0.7,2.1c0-0.2,0.9-0.6,1.3-0.7c1.1,0-0.3,0.6,1.9,0.1c0.3-0.7,4.7-0.5,1-0.7c1.1-0.2,1.7-0.3,2.4-0.3
							c0.7,0,1.4-0.1,2.7-0.2c-0.9-0.4,2.3-1.7,4.6-2c-0.1,0.2,0.4,0.4,0.6,0.5c1.2,0,2.2,0,3.2,0c1,0.1,1.9,0.1,2.8,0.2
							c0.9,0.1,1.8,0.1,2.7,0.2c0.9,0.1,1.9,0.2,3,0.3c0.4,0.2,2.5,0.6,1.6,0.8c0.6-0.1,1.2-0.2,2.6-0.1c2.5,0.9-3-0.3-1.1,0.7
							c0.2-0.4,3.5-0.2,5.4,0c-0.2-0.3-1.3-0.6-2.6-0.7s-2.7-0.1-3.7-0.1c0-0.4,0.9-0.7,2.4-0.9c0.7-0.1,1.6-0.2,2.6-0.2
							c1,0,2.1,0.1,3.2,0.2c1.9,0.2,2.2,0.5,2.2,0.6c0,0.1-0.4,0.2-0.1,0.2c1.7,0.4,2.9,0.6,3.9,0.7c1,0.1,1.7,0.2,2.4,0.2
							c1.4,0.1,2.6,0.1,5.3,1.4c2,1.2-0.3,1,0.1,1.6c-1.4-0.4-2.5-0.8-3.4-1.2c-1-0.4-1.8-0.8-2.8-1l2.3,0.9c-1-0.1-2.9-0.5-3.9-0.9
							c0.4,0.2,1.3,0.6,2.5,0.9c0.6,0.2,1.3,0.4,2,0.6c0.7,0.2,1.5,0.5,2.3,0.8c0.8,0.3,1.6,0.5,2.4,0.8c0.8,0.3,1.6,0.6,2.4,1
							c1.6,0.6,3,1.4,4.1,2c0.9,0.2,2.5,0.7,1.9,0.2l-1.6-0.6c-1.2-1,3.1,0.8,1.3-0.3c1.1,0.3,2.2,0.7,3.5,1.2
							c0.6,0.2,1.3,0.5,1.9,0.8c0.6,0.4,1.3,0.7,2,1.2l0.2,0.8c0-0.2-1.6-1.4-2.5-1.6c1.3,0.4,3.9,3.1,5.5,3.3
							c-0.6-0.5-1.1-1.1-1.7-1.6c1.1,0.4,2.3,1,3.5,1.5c1.2,0.6,2.5,1.3,3.6,2.2c-0.7-1.2-0.6-0.3-1.9-2.1c1,1.7-6.2-4-4.3-1.7
							c-0.7-0.9-1.4-1.4-2.2-2c-0.8-0.6-1.7-1.1-2.8-2.1c0,0.2,0.7,0.8-1.4-0.4c-0.1,0-0.4-0.1-0.6-0.1c-0.1,0-0.1-0.1-0.1-0.1
							c0,0,0.1,0.1,0.1,0.1c-0.1,0-0.1,0,0,0c0.5,0.3,0.8,0.6,1,0.8c-0.6-0.1-1.8-0.6-3-1c-1.2-0.4-2.4-0.9-3-1.1
							c-1.3-0.7,0.6,0,0-0.5c-0.6-0.2-1.3-0.3-1.9-0.4c0-0.5-3.3-2.1,0-1.1l-2.8-1.1c-1.6-0.9-3.9-1.7-5.4-2
							c-1.4-0.5-3.6-0.5-2.3-0.5c-0.8-0.2-1.6-0.4-2.3-0.5l-2.4-0.4l0-0.1c-2.3-0.6-4.7-0.8-7.2-1.1c-2.5-0.2-5-0.6-7.7-1.2
							c-0.8,0-1.6,0-2.5,0c-0.9,0-2,0-3.3-0.1l-0.5-0.4c-1,0-2.6,0-3.9-0.1s-2.6,0-3.1,0.2c-0.6-0.2-1.5-0.3-2.6-0.3
							c-0.6,0-1.1,0-1.8,0.1c-0.6,0.1-1.3,0.2-1.9,0.2c-1.3,0.2-2.7,0.4-3.9,0.6c-1.2,0.3-2.4,0.5-3.3,0.6l0,0.5
							c-1.2,0.2-2.4,0.5-3.6,0.9c-0.6,0.2-1.2,0.4-1.9,0.6c-0.7,0.2-1.3,0.5-2.1,0.7l0.3,0.4c-1.2,0.6-2.9,0.9-4.7,1.4
							c-0.9,0.2-1.9,0.5-2.8,0.8c-1,0.3-1.9,0.7-2.9,1.1c0.2-0.3,1.2-0.6,1.9-0.8c-1.2,0.2-2.5,0.6-3.7,1.1
							c-1.2,0.5-2.3,1.2-3.4,1.8c-1.1,0.6-2.2,1.3-3.3,1.9c-1.1,0.6-2.2,1.1-3.2,1.5c-0.9,0.7-1.6,1.1-2.4,1.4
							c0.1-0.1,0.2-0.1,0.2-0.2c-0.1,0.1-0.2,0.1-0.4,0.2c-0.5,0.2-0.9,0.4-1.4,0.6c0.5-0.2,0.9-0.3,1.2-0.5c-0.7,0.4-1.8,1.2-2.8,2
							l-0.7-0.1c-0.1,0.1-0.2,0.1-0.2,0.2c-1.2,0.5-0.7,0.7,0,0.7c-0.5,0.4-0.9,0.8-1.2,1.2c-1.3,0-2.6,2.1-4.2,2.3
							c-0.2,0.4-1.4,1.5-2.6,2.6c-1.1,1.1-2.2,2.3-2.2,2.8c-0.1-0.1-0.4,0.1,0.1-0.3c-1.2,0.8-2.2,1.8-3,2.8l-0.9,0l-0.8,1.4
							l-0.8,1.4c-1.6,1.1-2.3,1.5-1.3-0.2c-0.7,0.9-1.1,1.6-1.5,2.1c-0.3,0.5-0.6,0.9-0.9,1.2c-0.5,0.7-0.9,1.3-1.9,3l-0.2-0.4
							c-0.8,1.1-1.8,3.1-2.6,3.6c-0.6,0.5-1.5,1.5-2.5,2.9c-1.1,1.3-2.1,3.1-3.3,5c-2.3,3.8-4.6,8.2-6.5,11.8
							c0.9-0.5,0.3,0.3-0.3,1.3c-0.6,1-1.3,2.2-0.9,2.5c-0.4,0.3-1,1.3-0.7,0c-0.7,1.9-1.2,3.4-1.7,4.6c-0.5,1.3-0.8,2.5-0.8,3.9
							c-0.4,0.4-0.2-1-0.4-0.6c0,0.3-0.1,1.3-0.4,1.7c-0.3,0.4-0.1-0.6,0-1.3c-0.3,1-0.4,1.8-0.5,2.4c-0.1,0.6,0,1.1,0.1,1.5
							c0.2,0.7,0.5,1,0.9,1.2c-0.4,1-0.7,1.7-0.8,2.4c-0.1,0.7-0.1,1.4,0.1,2.1c-0.4,0.7-0.9,1.8-0.5-0.7c-0.1,0.4-0.2,1.1-0.4,2
							c-0.1,0.4-0.2,0.9-0.3,1.4c-0.1,0.5-0.1,1-0.2,1.5c-0.3,2-0.4,3.9-0.1,4c-0.2,0.4-0.2,2-0.2,2.4c-0.2,1.6-0.2,2.5-0.2,3.4
							c0,0.9-0.1,1.7-0.1,3.3l0.1-0.9c0.7,1.2,0.2,2.6,0.3,5.2l-0.1-0.1c-0.1,1.5-0.1,2.4-0.1,3s0.1,0.9,0.1,1.2s0.1,0.6,0.1,1.2
							c0,0.6,0,1.5,0.1,2.9l0.4-0.4c0.6,0.2,0.6,1.5,0.5,3.1c0,1.6,0.1,3.6,0.6,5.2l0.1-1.2c0.3,0.9,0.3,2.2,0.2,3.5
							c-0.1,1.3-0.3,2.7-0.1,3.6c0,0.4-0.3-0.6-0.5-1.1c0.7,4.9,0.8,0.5,1.9,3.9c-0.1,0.7-1.1-0.6-0.4,1.8c0.1,0.6,0.9,2.2,1.8,4.1
							c0.5,0.9,1,1.9,1.4,2.8c0.4,1,0.8,1.9,0.9,2.7c-0.1-0.8-0.1-1.5,0.8-0.1c1.1,2.3,2.1,6.7,4,8.4c0.1,0.3,0.1,0.5,0.1,0.5
							c0.6,0.8,1.4,2.2,2.3,3.4c0.9,1.2,1.8,2.3,2.3,2.7c-0.1,0.6,0.3,1.5,1,2.5c0.7,1,1.6,2.2,2.6,3.2c1,1,1.8,2,2.5,2.8
							c0.6,0.8,1,1.3,0.7,1.6c0.7,0.8,1.3,1.5,2,2.2l2.1,2.2l-0.2,0c1.3,1.5,2.3,2.3,3.1,2.9c0.8,0.6,1.4,0.9,2,1.2
							c0.6,0.7,0,0.3-0.1,0.4c2,2,3.1,3,4.3,3.9c1.2,0.8,2.3,1.5,4.5,2.6l0.1,0.7c1.1,0.6,6.3,5.3,11.5,7.3c-0.1,0-0.2,0.1-0.7-0.1
							c2.9,1.2,6.1,3.1,9.1,4.5c2.9,1.4,5.6,2.3,6.9,1.8c1.3,0.3,2.7,0.5,4.1,0.7c-5-1.6,1-0.5-1-1.4c1,0.2,2.2,0.7,2.9,1.1
							c0.7,0.3,0.8,0.6-0.4,0.3l-0.4-0.2c-1.2,0.7,6.3,1.9,6,2.4c5.1,1,10.2,1.6,15.3,2c5.1,0.4,10.1,0.2,15-0.2
							c-0.4-0.2-0.8-0.4-1.2-0.6c1.1-0.1,2.2-0.2,3.4-0.4c0.9,0.1,1.3,0.4-1.1,0.7c1.3,0.3,4-0.9,4-1.1c4.7-0.5-1.7,1.2-0.3,0.9
							l2-0.4l-0.5,0c0.8-0.3,1.2-0.5,1.8-0.7c0.6-0.2,1.3-0.4,2.7-0.8c1.8-0.3,1,0.2,1.8,0.1c0,0,0.3,0,1.1-0.2
							c1.4-0.3,2.8-0.7,4.2-1.1l-1.8-0.1c1.8-0.8,3.9-1.1,1.8-1.2c1.5,0.1,5.4-1.1,8.9-2.6c1.8-0.7,3.5-1.6,4.9-2.2
							c1.4-0.7,2.4-1.2,2.8-1.3c0.6-0.4,1.1-0.8,1.7-1.1c0.6-0.4,1.1-0.8,1.7-1.1c1.2-0.7,2.5-1.4,3.9-2.3c-0.8,0.3-1.5,0,0.9-1.4
							c-0.1,0.8,1.1,0.3,2.6-0.6c1.4-0.9,3.2-2,4.4-2.4c-1,0.4,0.6-0.9,2-2.1s2.6-2.5,1.1-1.7c1.8-1.5,0.4,0.3,2-0.6
							c3.9-4,9.2-8.3,13.3-13.9c-0.1-0.2-1,0.5-0.3-0.8c1-0.8,1.9-1.6,2.9-2.4c0.4-0.6,0.3-1,0.5-1.5c0.1-0.5,0.4-1,1.3-1.9
							c-0.3,0.2-0.8,0.5-0.3-0.3c4.1-5.4,7.1-11.7,9.5-18.2c2.4-6.5,4.3-13.2,6.2-19.9c-0.7,1.8-0.5,0.5-0.2-0.9
							c-0.2,0.9-0.4-0.1-0.7,0.1c0.5-1.9,1-3.7,1.4-5.6c-0.3-0.6-0.2-2.1-0.1-3.6c0.1-1.5,0.1-2.9-0.2-3.2l0.1,1.8
							c-0.4-1.2-0.8-0.4-1.3,0.7c-0.5,1.1-1.1,2.4-1.5,2.1c0.2,0.7,0.1,1.4,0,2.3c-0.1,0.8-0.4,1.7-0.7,2.7c-0.5,1.9-1.1,4-0.9,6.2
							c-0.4,0.9-0.2-0.9-0.5-0.4c0.2,1.1,0,2.5-0.7,4.8l0-0.3c-0.3,1.7-0.8,3.1-1.2,4.4c-0.4,1.3-0.8,2.5-1.3,3.7s-0.9,2.4-1.6,3.7
							c-0.6,1.3-1.2,2.8-2.1,4.5l0.7-0.3c-0.7,1.5-1,1.7-1.4,2.4c-0.1,2,2-4.2,2-2.3c-0.5,0.4-1,1.3-1.5,2.4
							c-0.6,1.1-1.2,2.4-1.9,3.6c-0.6,1.3-1.4,2.4-2,3.4c-0.6,0.9-1.2,1.6-1.6,1.8c-1.4,2.1,0.9-0.3-0.5,1.8l-0.6,0.4l0,0.8
							c-0.9,1.4-1.8,1.8-2,1.7c0.3-0.3,0.6-1,0.8-1.3c-0.8,0.8-1.6,2-2.3,3.1c-0.7,1.1-1.4,2.1-1.7,2.3c0.5-0.6,1.1-1.2,1.6-1.8
							c-1,1.4-2.1,2.9-3.3,4.3c-1.2,1.4-2.4,2.9-3.8,4.2c-0.6,0.7-1.3,1.4-1.9,2.1c-0.7,0.7-1.3,1.3-2,2c-1.3,1.3-2.6,2.5-3.8,3.8
							l0.5-0.2c-0.9,0.9-1.6,1.5-2.1,2c-0.6,0.4-1,0.7-1.5,1c-0.9,0.6-1.9,1.2-4.1,2.9l0.1-0.2c-0.8,0.9-2,1.8-3.3,2.6
							c1.1-1-2.5,1-1.1-0.2c-2.2,1.6-2.8,2-3.1,2.4c-0.3,0.3-0.4,0.6-1.8,1.9l-0.9,0.1c-0.5,0.4-0.7,0.7-1.2,1
							c-0.4,0.3-1.1,0.8-2.3,1.4c2-1.2-1.9,0.2,0.3-1.2c-1.4,0.4-2.6,0.9-3.6,1.4c-1,0.5-1.9,0.9-2.7,1.3c-1.6,0.8-2.9,1.4-4.4,1.2
							c-1.1,0.9,0.1,0.6,1.5,0.2c1.4-0.4,2.8-1.1,2.1-0.7c0.6-0.1,0.2,0.3-0.6,0.8c-0.9,0.5-2.1,1-3,1.2c-0.9,0.3-1.8,0.2-3,0.2
							c-0.6,0-1.3,0-2.1,0.1c-0.4,0-0.9,0.1-1.3,0.2c-0.5,0.1-1,0.2-1.6,0.3c0.5-0.1,0.5-0.2,0.9-0.3c-0.9,0.1-1.7,0.4-2.6,0.6
							c-0.4,0.1-0.9,0.3-1.4,0.4c-0.5,0.1-1,0.1-1.6,0.1c-1.1,0.8-2.8,0.5-3,1.3l4.3-1c-1.2,0.3-2.3,0.8-3.7,1.2
							c-1.4,0.4-2.9,0.7-5,0.8c0.3-0.2,1.5-0.6,2.3-0.8c-1.2-0.1-2.3,0.5-3.5,0.3c0.1-0.4,1.4-0.6,3-0.8c0.8-0.1,1.7-0.2,2.5-0.4
							c0.8-0.2,1.6-0.4,2.2-0.7c-0.6-0.1-1.8,0.3-2.8,0.5c-0.9,0.2-1.5,0.3-0.9-0.2c-0.9,0.7-2,0.8-3.4,0.9c-1.3,0-2.8,0-4.4,0.6
							l0.2-0.5c-0.5,0.1-1.5,0.4-2.5,0.4l1.7-0.7c-2.6,0.6-5-0.3-7.4-0.1c2.6,0.1,2.9,0.2,2.8,0.4c-0.1,0.2-0.5,0.4,0.6,0.6
							c-6.4,0.5-3.7-1.2-10.8-1.5c1,0,3.6,0.6,2.1,0.7c-1.4-0.2-3.1-0.6-3.9-0.9c-4.7-0.5,0.7,0.6-1.4,0.6c-1.5-0.8-2.3-0.1-4.4-0.3
							l0.1-0.5c-1.3-0.3-2.1-0.4-2.5-0.5c-0.5,0-0.6,0-0.8,0.1c-0.3,0.2-0.6,0.4-3-0.4l2.2-0.2c-0.8-0.1-1.7-0.2-2.5-0.4
							c0.2-0.1,0.4-0.2,0.6-0.4c-1.4-0.2-2.3-0.4-3.1-0.6c-0.9-0.2-1.7-0.5-3-1.1c0.5,0.5-0.6,0.7-2.9,0c-1.4-0.8,1-0.1-2.2-1.3
							c0.8,0,1.7,0,3,0.9c0.2-0.1,0.8,0,1-0.1c-1.6-0.8-4.1-1.6-5.2-2c0.4,0.2,0.9,0.4,1.2,0.6c-0.8-0.2-1.6-0.4-2.4-0.6l-2.4-0.7
							c-0.6-0.5,0-0.4,0.6-0.2c-0.9-0.4-1.7-0.4-3-1c0.5-0.2,0.6-0.5,2.6,0.1c-1.5-0.5-2.9-1.1-4.4-1.7c-0.2-0.3-1.9-1.5-1.3-1.4
							c-1.1-0.8-2.5-1.4-4.1-2.1c-1.5-0.8-3.2-1.5-4.5-2.7c-0.2,0-0.5-0.2-1.2-0.6c-0.7-0.5-1.3-1-1.9-1.5c-0.6-0.5-1.2-1-1.8-1.6
							c-0.6-0.5-1.2-1-1.9-1.5c-0.7-0.5-1.4-1.1-2.2-1.6c-0.4-0.7-0.8-1.3-1.2-2c-2.3-2,1.5,2.7-2.3-0.6c-2.7-2.3-0.5-1.3-1.3-2.4
							c-0.7-0.5-1.8-1.2-2.8-2.1c-1.1-0.9-2.1-2.1-3-3.5C100.2,369.1,100.7,369.8,101.4,370.5z M82.5,338.9c0.2,0.3,0.4,0.8,0.7,1.3
							c0.2,0.5,0.4,0.9,0.4,1.2C82.7,340.8,82.7,340.1,82.5,338.9z M79.1,283.1c0,0.6-0.2,1.4-0.6,2.2
							C78.6,284.7,78.8,283.9,79.1,283.1z M205.1,213.1C205,213.1,205,213.1,205.1,213.1C203.4,212.4,204,212.6,205.1,213.1z
							 M208.3,214.5c0.4,0.1,0.4,0,0.2-0.1c-0.3,0-1-0.3-1.8-0.6C206.9,213.9,207.2,214.2,208.3,214.5z M196.3,404l-0.7,0
							C197.1,403.6,196.7,403.8,196.3,404z"/>
						<path class="st2" d="M78.3,289.5c-0.1,0.2-0.2,0.2-0.3,0.3C78.1,290.1,78.2,290.1,78.3,289.5z"/>
						<path class="st2" d="M118.7,385.5L118.7,385.5c0.2,0.1,0.2,0.1,0.2,0.1L118.7,385.5z"/>
						<path class="st2" d="M156,213.4c-0.7,0.1-1.1,0-1.4,0C154.6,213.5,154.9,213.5,156,213.4z"/>
						<path class="st2" d="M225.2,221.9c-0.6-0.4-1.3-0.7-2-1c0.9,0.5,1.2,0.8,1.7,1.2C224.9,221.9,224.6,221.6,225.2,221.9z"/>
						<path class="st2" d="M238.7,235.9c0.3,0.2,0.5,0.5,0.8,0.6l0.1-0.2C238.5,235.4,237.7,234.9,238.7,235.9z"/>
						<path class="st2" d="M226.1,224.4c-0.1,0.5,1.2,1,2.5,1.9c-0.1-0.1-0.1-0.1-0.2-0.2C229,225.9,227.6,225.1,226.1,224.4z"/>
						<path class="st2" d="M228.9,226.5c0.4,0.3,0.8,0.5,1.2,0.8C230.3,227.2,229.6,226.9,228.9,226.5z"/>
						<path class="st2" d="M212.4,215.9c0.6,0.4,0.6-0.3,0.9,0C214.4,215.8,208.6,214.5,212.4,215.9z"/>
						<polygon class="st2" points="226.4,226.2 226.2,225.5 225.3,225.4 						"/>
						<path class="st2" d="M216.1,219.9l2.1,1.2c0-0.1,0.3,0,0.7,0.1C217.6,220.5,216.1,219.7,216.1,219.9z"/>
						<path class="st2" d="M218.9,221.2c0.7,0.4,1.3,0.8,1.8,0.9C220.3,221.9,219.5,221.5,218.9,221.2z"/>
						<path class="st2" d="M223.5,224.5l-0.6-0.5l-1.5-0.9C222.1,223.6,222.9,224,223.5,224.5z"/>
						<path class="st2" d="M191.3,211.3l-2.7-0.3c-0.3,0.1,0.4,0.4,1.4,0.5C190.6,211.4,191.6,211.5,191.3,211.3z"/>
						<path class="st2" d="M198.8,214.5c-0.7-0.3-0.7-0.4-1-0.7l-0.2,0.6L198.8,214.5z"/>
						<path class="st2" d="M191.2,212.8c-0.3,0.1-3.9-0.2-0.6,0.4C191,213.1,193.6,213.4,191.2,212.8z"/>
						<polygon class="st2" points="151.6,212.5 152.3,212.3 152,211.3 						"/>
						<path class="st2" d="M120.6,228.1c2.7-1.4,0.3-0.9,2.8-2.2c0.5-0.6-2.1,1-1.5,0.4C120.4,227.6,119.5,228,120.6,228.1z"/>
						<path class="st2" d="M121.8,226.4c0.2-0.2,0.5-0.4,0.7-0.6C122.2,226.1,122,226.3,121.8,226.4z"/>
						<path class="st2" d="M272.3,313.2c0.1-0.7,0.2-1.4,0.3-2.1l-0.4,1.3C272.2,312.7,272.2,313,272.3,313.2z"/>
						<path class="st2" d="M271.6,309.2l0.7-0.5l-0.6-1.2C271.8,307.9,271.8,308.9,271.6,309.2z"/>
						<path class="st2" d="M82.1,333.3l-0.2-0.1c-0.1,0.3,0,0.8,0.3,1.7L82.1,333.3z"/>
						<polygon class="st2" points="92.4,357.7 92.2,357.3 92.2,358.4 						"/>
						<path class="st2" d="M107,374.6c-0.7-0.6-1.5-1.3-2.1-2C106.3,374,106.7,375.3,107,374.6z"/>
					</g>
				</g>
			</g>
		</g>
	</g>
	<g>
		<g>
			<g>
				<g>
					<g>
						<path class="st3" d="M81.2,304.7c-0.1,0.8,0.4,0.5,0.4,0.7C81.6,303.9,81.1,304.7,81.2,304.7z"/>
						<polygon class="st3" points="81.4,290.6 81.5,290.9 81.5,288.8 						"/>
						<path class="st3" d="M84.4,277.8c-1,1-1.3,4.6-2,6.9l-0.2,0.3l0.3,1.1c0.3-1.4,0.5-3,0.8-4.5C83.7,280.1,84,278.7,84.4,277.8z
							"/>
						<path class="st3" d="M88.2,271.8c-0.4,0.3,0.3-1.5-0.7,1.5c0.1-0.1,0.1-0.2,0.2-0.2C87.8,272.7,88,272.4,88.2,271.8z"/>
						<path class="st3" d="M87.7,273C87.2,274.3,88.3,272.2,87.7,273L87.7,273z"/>
						<path class="st3" d="M90.1,267.1l-0.5,1.7c0.3-0.3,1-1.7,0.9-1.1C91,266,90.7,266.3,90.1,267.1z"/>
						<path class="st3" d="M90.3,265.4c-0.1,0.3-0.2,0.6-0.3,0.9C90.1,266.1,90.2,265.9,90.3,265.4z"/>
						<path class="st3" d="M89.4,268.1l0.6-1.9c-0.2,0.2-0.4,0.1-0.3,0.9C89.6,266.9,89.6,267.3,89.4,268.1z"/>
						<path class="st3" d="M88.8,269.1c-0.6,0.9-1.1,2-0.7,0.3c-0.6,1.6-0.7,2.4-0.6,2.3C87.7,271.6,88.1,270.7,88.8,269.1z"/>
						<path class="st3" d="M83.9,277c-0.2,0.4-0.4,0.8-0.6,1.3l-0.1,1.2c0-0.3,0.2-0.9,0.4-1.5C83.9,277.4,84.1,277,83.9,277z"/>
						<path class="st3" d="M95.7,257.5c-0.1-0.2-0.7,0.3-0.9,0.3c-0.2,0.4-0.4,0.8-0.5,1.2C94.7,258.5,95.5,257.4,95.7,257.5z"/>
						<path class="st3" d="M94.8,257.8l0.9-1.8C94.7,257.5,94.6,257.8,94.8,257.8z"/>
						<path class="st3" d="M89.7,264.7c-0.4,1-0.6,2.2-0.9,3.2c0.4-1.3,0.7-2.6,1.2-3.8L89.7,264.7z"/>
						<path class="st3" d="M100,251.2l-0.4,1.1c0.2-0.6,0.5-1.3,0.8-1.9L100,251.2z"/>
						<path class="st3" d="M103.1,247.3c-0.3,0.8,1.1-0.5,0.7,0.2c0.8-1.1,1.4-2.1,1.9-3C105.1,245.4,104.3,246.3,103.1,247.3z"/>
						<path class="st3" d="M106.7,243c-0.3,0.4-0.6,0.9-1,1.5C106.1,244,106.4,243.5,106.7,243z"/>
						<path class="st3" d="M97.6,253.2c0.2-0.1,0.5-0.2,1.3-1l-0.8,0.4C97.9,252.7,97.8,253,97.6,253.2z"/>
						<path class="st3" d="M98.1,252.6L98.1,252.6c0.5-0.7,0.9-1.2,1-1.4C98.9,251.4,98.6,251.8,98.1,252.6z"/>
						<path class="st3" d="M97.5,253.4c0-0.1,0.1-0.1,0.1-0.2C97.5,253.2,97.5,253.2,97.5,253.4z"/>
						<path class="st3" d="M92.6,260.2c0.4-1.1,1.4-3.4-0.1-1.5C92.3,259.6,93.1,258.5,92.6,260.2z"/>
						<path class="st3" d="M96.5,253.8c-0.4,0.6-0.8,1.2-1.2,1.7c0.1,0,0.5-0.2,0.2,0.4C95.8,255.2,96.1,254.5,96.5,253.8z"/>
						<polygon class="st3" points="97,252.9 96.5,253.8 97,253.2 						"/>
						<path class="st3" d="M103.9,245.4c0.4-0.8,1.1-1.6,1.9-2.4c-0.9,0.8-1.8,1.7-2.6,2.6C103.3,245.8,103.1,246.4,103.9,245.4z"/>
						<path class="st3" d="M101,248.8c0-0.1,0.1-0.1,0.1-0.2C101,248.7,100.9,248.8,101,248.8z"/>
						<path class="st3" d="M113.9,235.3c-0.1,0-0.1,0-0.2,0.1c0,0,0,0.1,0,0.1L113.9,235.3z"/>
						<path class="st3" d="M103.1,245.7c-0.7,0.6-0.9,1.1-1.2,1.6c0.4-0.5,0.9-1.1,1.4-1.7C103.3,245.5,103.2,245.5,103.1,245.7z"/>
						<path class="st3" d="M108.7,240.6c-0.4,0.3-0.8,0.6-1.3,0.9C107.8,241.3,108.7,240.8,108.7,240.6z"/>
						<path class="st3" d="M101.3,248.4c0,0,0,0.1-0.1,0.1C101.5,248.4,101.5,248.4,101.3,248.4z"/>
						<path class="st3" d="M101.3,248.4c0.2-0.4,0.4-0.8,0.6-1.1c-0.3,0.5-0.6,0.9-0.8,1.3C101.2,248.5,101.3,248.5,101.3,248.4z"/>
						<path class="st3" d="M114.9,231c0.1,0.4-1.6,2.2-3.5,3.3c-1.4,1.6,0.5,1.7,2.3,1.1c-0.1-0.2-0.2-0.3,1.3-1.8
							c-0.8,0.2-3.9,2.6-2.8,1.2c1-1,1.5-1.3,1.8-1.5c0.4-0.2,0.6-0.2,1.2-0.5c-1.2,0.3,2.4-2.8,1.5-3c-0.6,0.5-1.2,1.1-1.8,1.7
							C114.9,231.4,115.5,230.7,114.9,231z"/>
						<path class="st3" d="M110.7,238l-0.6,0.6c0.8-0.6,1.4-1,2.6-1.6c0.9-1.1,1.1-1.4,1.1-1.6c-1.1,0.9-2.2,1.8-3.2,2.8L110.7,238z
							"/>
						<path class="st3" d="M107.3,241.3c0.1-0.8,1.6-2.4,0.3-1.8c-1.8,1.8-1,1.5-1.9,2.8C108.4,239.2,105,243.3,107.3,241.3
							c-0.6,0.6-1,1.2-1.5,1.7c0.6-0.5,1.1-1,1.6-1.4c0,0-0.1,0-0.1,0.1l0,0v0c-0.2,0.1-0.2,0.1-0.1,0c0,0,0-0.1,0.1-0.1
							C107.3,241.5,107.3,241.4,107.3,241.3c0.9-0.8,0.2-0.1,0,0.2c0,0,0,0.1,0,0.1c0,0,0,0,0,0c0.9-1.1,1.8-2,2.8-3
							C109.4,239.2,108.6,239.9,107.3,241.3z"/>
						<path class="st3" d="M92.8,256.3c0.1-0.1,0.1-0.1,0.2-0.1C93.1,256,93.1,255.9,92.8,256.3z"/>
						<path class="st3" d="M93.9,255c-0.1,0.3-0.1,0.6-0.7,1.4c-0.6,0.6-0.2-0.1-0.3-0.1c-0.2,0.6-0.8,1.9,0.3,0.5l0.1-0.3
							c1-1.3,2.6-2.9,2.5-2.6C95.3,254.1,94.9,254.3,93.9,255z"/>
						<path class="st3" d="M100.3,247.6c0.6-1,1.4-1.9,2.1-2.8l-1.4,1.1l0.2,0.1C99.8,247.5,100.3,247.3,100.3,247.6z"/>
						<path class="st3" d="M114.4,235.2l-0.1,0.6c0.3-0.6,0.8-1.1,1.1-1.7L114.4,235.2z"/>
						<path class="st3" d="M117.8,232.4l0.1,0.4c0.3-0.3,0.5-0.6,0.8-0.9L117.8,232.4z"/>
						<path class="st3" d="M254.7,354.2l-0.4,1C254.5,354.7,254.6,354.4,254.7,354.2z"/>
						<path class="st3" d="M258.4,347.5l-0.1-0.2C258.2,347.6,258.2,347.7,258.4,347.5z"/>
						<path class="st3" d="M220.1,227.9c1,1.1,2.1,2.4,2.2,2l-0.1-0.6C221.2,228.9,220.6,228.4,220.1,227.9z"/>
						<path class="st3" d="M264,286.9c0-0.1,0-0.3,0-0.5c-0.2-0.3-0.4-0.6-0.6-0.9C263.6,286,263.8,286.4,264,286.9z"/>
						<path class="st3" d="M265.9,287.6l0.1,2C266,289.2,266,288.5,265.9,287.6z"/>
						<path class="st3" d="M226.7,384.8c-0.2,0.4-0.5,0.7-0.8,1.1C227.5,384.7,226.7,385,226.7,384.8z"/>
						<path class="st3" d="M159.2,215.2c1.3,0,2.3-0.1,3.1-0.1C160.9,215,159.6,214.8,159.2,215.2z"/>
						<path class="st3" d="M252.2,349.3c-0.2,0.6-0.3,0.8-0.2,0.9C252.2,349.6,252.3,349.3,252.2,349.3z"/>
						<path class="st3" d="M166,214.7c-0.2,0-0.4,0-0.7-0.1c-0.9,0.1-1.8,0.2-2.9,0.4C163.5,215.1,164.8,215.1,166,214.7z"/>
						<path class="st3" d="M92.7,359c-0.1-0.1-0.1-0.2-0.1-0.3C92.5,358.7,92.5,358.8,92.7,359z"/>
						<path class="st3" d="M81.5,317.5c0.1,0.4,0.2,1.1,0.2,1.7C81.7,318.9,81.7,318.4,81.5,317.5z"/>
						<path class="st3" d="M133.1,223.4C132.3,223.9,133,223.5,133.1,223.4L133.1,223.4z"/>
						<path class="st3" d="M128.2,224c0.2-0.1,0.3-0.3,0.2-0.4C128.4,223.7,128.4,223.9,128.2,224z"/>
						<path class="st3" d="M175.4,211.9C175.5,211.9,175.5,211.9,175.4,211.9C175.2,211.8,175.3,211.8,175.4,211.9z"/>
						<path class="st3" d="M131.8,223.9c0.3-0.1,0.7-0.3,1.1-0.4C132.7,223.5,132.4,223.6,131.8,223.9z"/>
						<path class="st3" d="M132,224c-0.3,0.1-0.5,0.2-0.8,0.3C131.2,224.4,131.3,224.4,132,224z"/>
						<path class="st3" d="M134.3,222.9c-0.5,0.2-0.9,0.4-1.4,0.6c0.2-0.1,0.3-0.1,0.2,0C133.4,223.3,133.7,223.1,134.3,222.9z"/>
						<path class="st3" d="M159.8,399.3c-0.1,0-0.1,0-0.2-0.1C158.6,399.3,159,399.3,159.8,399.3z"/>
						<path class="st3" d="M242.2,240.4C242.2,240.4,242.2,240.3,242.2,240.4C242.2,240.3,242.2,240.4,242.2,240.4L242.2,240.4z"/>
						<path class="st3" d="M244.8,242.8c-1.4-0.8-1.9-1.5-2.6-2.4c0,0.6-0.1,1.1-0.1,1.7L244.8,242.8z"/>
						<path class="st3" d="M244,369l1.9-1.6c-1.5,2.7-3.1,4.2-1.1,2.8c-0.4-0.6,1.2-2.4,2.7-4.4c0.7-1,1.5-1.9,2-2.7
							c0.5-0.8,0.7-1.5,0.5-1.7l1.2-1.2c-0.3,0.4-0.3,0.5-0.5,0.9c2.4-2.2,0.6-2.5,2.9-5.8c0.8-1.2,1.5-2,1.1-1l1.3-2.9
							c0.5-0.8,0.6-0.5,0.1,0.3c0.8-1.4,1.4-2.9,2.1-4.4l0,0c0.1-0.7,0.5-2.3,0.6-3c0.7-1-0.1,0.6,0.2,0.4c0.3-0.9,0.5-1.7,0.8-2.6
							c0.4-0.4,0.4-0.1,0.3,0.5c-0.2,0.6-0.5,1.6-0.9,2.5c1.1-0.9,1.3-1.4,1.5-2.3c0.2-0.9,0.5-2.2,1.8-4.6
							c-0.2,0.8-0.5,1.6-0.8,2.5c0.6-0.6,1.1-1.4,1.6-2.4c0.4-1,0.9-2.1,1.6-3.5c-0.5,0.6-3,5.1-2.4,2.2c0.4-0.8,0.8-1.8,1-3.4
							c0.5,0.1,0.8-1.4,1.3-3.3l0.6,0.3c0.4-2.1,0-2,0-3.3c0.6-2.2,1.2-2.6,1.7-3.1c0.8-3.7-1.2,2.4-0.6-2c0.2-0.8,0.4-1.5,0.5-2.1
							c0.1-0.7,0.2-1.4,0.2-2.1c0.1-1.4,0.1-2.9,0.1-4.7c0.4-2.1,0.4,0.4,0.6-0.4l-0.4-2c0-0.5,0.2-0.3,0.3-0.2
							c-0.1-1.6-0.6-0.2-0.7-2.7c-0.4-0.4,0-1.6,0.2-3.2c0.2-1.6,0.4-3.5-0.1-5.1c0.1-0.8,0.4,0.4,0.6,0.1c-0.9-4.3-0.6-3.7-1.8-7.1
							c0-1,0-2,0-3c-0.1,2.2-1.1-0.4-2-2.7c-0.1,0.8-0.2,1.5-0.2,1.9c-0.3-1.2-0.7-2.5-1.1-3.7c0-0.5,0.3-0.1,0.7,0.4
							c-0.1-0.2-0.2-0.5-0.3-0.7c-0.1-1.4,0.4-0.8,1,0.1c0,0.5,0,1-0.1,1.5c0.5,0.9,1.1,1.7,1.5,1.4c-0.1-0.2-0.3-0.7-0.4-1.2
							c0.1,0.2,0.3,0.4,0.3,0.2c0-0.1-0.1-0.5-0.5-1.1l0.5-1l-0.3-0.1c-0.2-1.7-0.5-3.4-0.8-5.1c-0.4-0.8-0.9-1.6-1.3-2.5
							c-0.5-0.8-1-1.6-1.5-2.5c-0.5-0.9-1-1.8-1.6-2.8c-0.6-1-1.1-2.2-1.8-3.5c1.1,1.1,0.9,0,1.5-0.2c0,0.9,0.5,1.9,1.1,3.1
							c0.3,0.6,0.6,1.2,1,1.9c0.3,0.7,0.6,1.4,0.8,2.1c-0.4-1.5,0-1.3,0.2-0.9c-0.7-1.7-1.6-3.3-2.5-4.9c0.5-0.1-0.1-1.2-0.5-2.6
							c-0.2,0.7-0.8-0.2-1.5-1.4c-0.6-1.3-1.5-2.9-2.1-3.8c0.2-0.3,0.8,0,1.9,2.5c-0.7-3-2.7-2.9-3.6-5.7c0.3,0.6,0.5,0.9,0.7,1
							c-0.5-0.6-1.2-1.7-1.6-2.6s-0.8-1.6-0.4-1.3l0.4,0.6c-0.6-0.9-1.3-2.1-2.1-3.3c-0.8-1.2-1.8-2.4-2.6-3.6
							c-1.8-2.2-3.5-3.9-4-3.9c0.1-0.1,1.2-0.2,1.4-0.1c-2.4-1.4-4.8-2.7-7.3-3.8c1,0,0.4-3.1,3.2-0.8c-0.7-0.8-1.4-1.9-3.2-3.2
							c0.4,0.6,0.5,2-0.2,1.4c-1.4-2.4-1-1.6-2.9-4.3c0.7,0.8-1,0.9-2.2-0.2c0.3,0,0.6-0.9,1.2-0.6c-1.3-0.6-2.6-1.3-3.9-1.8
							c0.9,0.5,0.7-0.6,0.2-1.5c0.1,0.2-0.6-0.3-1.5-1c-0.9-0.7-1.9-1.4-2.4-1.7l1.3,1.2c-3.8-2.9-4.7-1.4-8.6-3.8
							c0.6,0.1,1.9-0.5-0.1-1.8c-1.2-0.1-5.5,0-9.3-1.2l-0.6-0.6c-1-0.3-2-0.6-3-0.9c1.1-0.1,3,0.1,5.1,0.3c2.1,0.2,4.2,0.7,5.8,1.1
							c-1.4-1.1-0.2-0.6-2.6-1.8c-0.7-0.7,1.5,0.2,2.2,0.6c-1.8-1-3.6-2-5.5-2.9c0,0.4-1.2,0-2.3-0.3c-1.2-0.3-2.3-0.6-2.3-0.3
							c2.2,0.6,4.3,1.3,6.4,2c0,0.4-1.1,0.4-2.7,0.1c-0.8-0.1-1.7-0.4-2.6-0.6c-1-0.3-2-0.6-3-1c-0.9-0.7,1.2-0.8,1.2-1.1
							c-0.3,0-1.3-0.3-2.3-0.6c-1-0.3-1.9-0.6-2.1-0.7l1.9,0.2c-1.1-0.5-2.1-0.6-3.2-0.8c-1.1-0.2-2.2-0.3-3.5-1
							c-0.9-0.4-2.7-1.6-3-1.2c1.4,1.1,1.1,3.5,0,3.8c-0.2-0.1-1.4-0.5-2.7-1.1c-1.3-0.6-2.7-1-3.2-1.3c-1.5-0.9,2.7-1,1.4-1.7
							c-0.1,0.2-1,0.2-1.4,0.2c-1-0.3,0.5-0.5-1.8-0.8c-0.5,0.6-4.6-0.6-1.2,0.4c-1.1,0-1.7-0.1-2.3-0.3c-0.6-0.1-1.3-0.3-2.6-0.4
							c0.8,0.5-2.5,1.3-4.7,1.4c0.1-0.2-0.4-0.4-0.6-0.5c-1.1,0-2.1-0.1-3.1-0.2c-0.9,0-1.8,0-2.6-0.1c-0.9,0-1.7-0.1-2.6,0
							c-0.9,0-1.8,0.1-2.9,0.2c-0.4-0.1-2.5-0.2-1.6-0.5c-0.6,0.2-1.1,0.5-2.4,0.7c-2.6-0.3,2.9-0.5,0.9-0.9
							c-0.1,0.4-3.3,0.9-5.1,1.6c0.3,0.3,1.4,0.1,2.6-0.2s2.6-0.6,3.5-0.8c0.1,0.4-0.7,0.9-2,1.5c-0.6,0.3-1.4,0.5-2.3,0.8
							c-0.9,0.3-1.9,0.6-2.9,0.9c-1.7,0.4-2.1,0.4-2.1,0.2c-0.1-0.1,0.2-0.4,0-0.2c-1.6,0.3-2.7,0.7-3.6,1c-0.9,0.4-1.4,0.7-2,1
							c-1.1,0.6-2.1,1.1-4.7,1.8c-2.2,0.2-0.4-1-1-1.2c1.3-0.6,2.4-0.8,3.3-1c1-0.2,1.8-0.3,2.8-0.6l-2.4,0.4
							c0.8-0.4,2.6-1.1,3.7-1.2c-0.5,0-1.4,0.2-2.6,0.5c-0.6,0.1-1.2,0.3-1.9,0.5c-0.7,0.2-1.4,0.5-2.2,0.7
							c-0.8,0.3-1.5,0.5-2.3,0.8c-0.8,0.3-1.6,0.6-2.3,0.9c-1.5,0.6-3,1.1-4.2,1.6c-0.8,0.5-2.1,1.4-1.3,1.2l1.4-0.7
							c1.5-0.2-2.5,1.8-0.6,1.1c-0.9,0.6-1.8,1.3-2.9,1.9c-0.5,0.3-1.1,0.7-1.7,1c-0.6,0.4-1.2,0.7-1.9,1l-0.8-0.2
							c0.2,0.1,1.9-0.7,2.5-1.2c-0.9,0.9-4.4,1.5-5.2,3c0.7-0.2,1.3-0.5,2-0.7c-0.8,0.6-1.7,1.5-2.7,2.4c-1,0.8-2,1.7-3.1,2.3
							c1.3-0.2,0.4-0.4,2.4-0.9c-1.8,0.1,5.7-3.6,3-3c1-0.1,1.8-0.5,2.6-0.9c0.8-0.4,1.7-0.8,3-1.1c-0.2-0.1-1,0.1,1-0.9
							c0.1-0.1,0.2-0.3,0.4-0.4c0.1,0,0.1,0,0.1-0.1c0,0-0.1,0-0.1,0c0.1-0.1,0.1-0.1,0,0c-0.5,0.2-0.9,0.3-1.1,0.2
							c0.4-0.4,1.4-1.1,2.4-1.7c1-0.6,2.1-1.1,2.6-1.4c1.2-0.4-0.4,0.4,0.3,0.3c0.5-0.4,1-0.7,1.5-1c0.3,0.4,3.5-0.6,0.8,0.8l2.6-1
							c1.6-0.3,3.8-0.9,5-1.5c1.3-0.3,3-1.4,2-0.7c0.7-0.2,1.4-0.5,2.1-0.7l2.1-0.6l0.1,0.1c2.1-0.5,4.2-1,6.5-1.5
							c2.2-0.4,4.6-0.7,7.1-0.5c0.7-0.1,1.4-0.2,2.3-0.3c0.9-0.1,1.8-0.1,3-0.1l0.5,0.4c0.9-0.1,2.3,0,3.6,0.1
							c1.2,0.1,2.4,0.1,2.8,0c0.5,0.3,1.3,0.5,2.2,0.6c0.5,0.1,1,0.1,1.6,0.2c0.6,0.1,1.1,0.1,1.7,0.2c1.2,0.1,2.4,0.2,3.5,0.4
							s2.1,0.3,2.9,0.5l0.2-0.5c1.1,0.2,2.2,0.5,3.3,0.6c0.6,0.1,1.2,0.2,1.8,0.3c0.6,0.1,1.3,0.3,1.9,0.4l-0.1-0.5
							c1.2,0.2,2.7,0.6,4.3,1.3c0.8,0.3,1.6,0.7,2.5,1c0.9,0.4,1.7,0.8,2.6,1.1c-0.3,0.1-1.2-0.3-1.8-0.7c1,0.6,2,1.1,3.1,1.6
							c1.1,0.4,2.2,0.9,3.3,1.2c1.1,0.4,2.2,0.8,3.2,1.3c1,0.5,2,1,2.8,1.7c1,0.4,1.6,0.8,2.2,1.2c-0.1-0.1-0.2-0.1-0.2-0.1
							c0.1,0.1,0.2,0.1,0.4,0.2c0.4,0.3,0.7,0.6,1.1,0.9c-0.3-0.3-0.6-0.6-0.9-0.8c0.7,0.4,1.7,1,2.8,1.6l0.2,0.7
							c0.1,0.1,0.1,0.1,0.2,0.1c0.9,0.8,0.9,0.3,0.6-0.3c0.6,0.2,1,0.5,1.4,0.6c0.3,1.2,2.7,1.6,3.2,3c0.4,0.1,1.6,0.9,2.9,1.7
							c1.2,0.9,2.4,1.7,2.9,1.6c0,0.1,0.2,0.4-0.3,0c1,0.9,1.8,1.9,2.9,2.6l0,0.8l1.3,0.7l1.3,0.8c0.9,1.5,1.3,2.2-0.2,1.3
							c0.9,0.6,1.4,1.1,1.9,1.5c0.4,0.4,0.7,0.7,1,0.9c0.6,0.6,1.1,1,2.5,2.2l-0.4,0.1c0.8,1,2.5,2.3,2.7,3.1
							c0.3,0.7,0.9,1.8,1.8,3.1c0.9,1.3,1.9,2.9,3,4.7c2.1,3.5,4.2,7.7,5.3,11.2c0.2-0.9,0.5-0.1,0.8,1c0.2,1,0.5,2.3,1,2.3
							c-0.1,0.5,0.1,1.5-0.5,0.5c0.8,1.7,1.1,3.1,1.5,4.2s0.7,2.2,1.4,3.4c-0.1,0.5-0.6-0.6-0.7-0.2c0.1,0.3,0.5,1.1,0.5,1.5
							c-0.1,0.4-0.4-0.5-0.6-1c0.3,0.9,0.5,1.6,0.8,2.1c0.2,0.5,0.5,0.9,0.7,1.2c0.4,0.5,0.9,0.6,1.3,0.6c0,1,0.1,1.7,0.3,2.4
							c0.1,0.6,0.4,1.2,0.8,1.9c-0.1,0.7-0.2,1.9-0.7-0.5c0,0.3,0.1,1,0.3,1.8c0.1,0.4,0.1,0.9,0.2,1.3c0,0.5,0.1,0.9,0.2,1.4
							c0.2,1.9,0.5,3.6,0.8,3.6c-0.1,0.4,0.1,1.9,0.2,2.2c0.1,1.5,0.1,2.3,0.1,3.1c0,0.8,0,1.6,0.1,3.1l0.1-0.8
							c0.8,1.2,0.2,2.5,0.2,4.9l-0.1-0.1c-0.1,1.4-0.3,2.2-0.4,2.8c0,0.6,0,0.9,0,1.1c0,0.3,0,0.6,0,1.1c0,0.5-0.2,1.4-0.5,2.7
							l0.5-0.2c0.5,0.3,0.2,1.5-0.2,3c-0.5,1.5-1.1,3.2-1.2,4.8l0.5-1.1c0,0.9-0.6,2-1.2,3c-0.7,1.1-1.4,2.1-1.7,2.9
							c-0.2,0.3,0-0.6,0.1-1.1c-1.8,4.1,0.5,0.7-0.3,4c-0.5,0.5-0.6-1-1.3,1.1c-0.3,0.5-0.5,2.1-1,3.9c-0.5,1.8-1,3.9-2,5.1
							c0.5-0.5,1-1,0.6,0.5c-0.9,2.2-3.6,5.3-4,7.6c-0.2,0.2-0.3,0.3-0.4,0.3c-0.4,0.8-1,2.2-1.6,3.4c-0.6,1.2-1.2,2.4-1.3,3
							c-0.6,0.1-1.2,0.8-1.9,1.7c-0.7,0.9-1.4,2.1-2.1,3.2c-0.7,1.1-1.4,2.2-2,2.9s-1.1,1-1.4,0.8c-0.6,0.7-1.2,1.4-1.8,2.1l-1.9,2
							l0-0.2c-1.2,1.3-2.1,2.1-2.7,2.8c-0.6,0.7-0.9,1.3-1.2,1.9c-0.7,0.5-0.3,0-0.3-0.1c-2.1,1.6-3.2,2.5-4.2,3.4
							c-1,0.9-1.8,1.8-3.4,3.4l-0.7-0.1c-0.8,1-6.6,3.6-10.9,6.4c0-0.1,0.1-0.2,0.4-0.5c-2.4,1.6-5.7,2.8-8.5,3.7
							c-2.8,1-5.2,1.7-5.9,2.9c-1.1,0.6-2.3,1-3.5,1.5c4.8-1.2-0.5,1,1.6,0.7c-0.9,0.3-2.2,0.5-2.9,0.6c-0.7,0-0.9-0.1,0.2-0.5
							l0.4,0c0.6-1.1-6.1,1.1-6.1,0.4c-4.7,1-9.5,1.4-14.2,1.4c-4.7,0.1-9.3-0.3-13.8-0.8c0.3,0.3,0.6,0.6,1,0.8
							c-1.1-0.1-2.1-0.3-3.1-0.4c-0.8-0.3-1-0.7,1.2-0.4c-1.1-0.5-3.8-0.1-3.9,0c-4.3-1.1,1.8-0.5,0.5-0.8L156,395l0.4,0.2
							c-0.8,0-1.2,0.1-1.8,0.1c-0.6,0-1.3,0-2.6-0.4c-1.6-0.5-0.8-0.6-1.4-0.8c0,0-0.2-0.1-1-0.2c-1.3-0.4-2.5-0.8-3.8-1.1l1.4,1
							c-1.8-0.2-3.6-1.1-2,0.1c-1.1-0.9-4.6-2.1-8-3.5c-1.7-0.7-3.2-1.4-4.6-2c-1.3-0.6-2.2-1.1-2.5-1.4c-0.6-0.2-1.2-0.4-1.8-0.6
							c-0.6-0.2-1.1-0.5-1.7-0.9c-1.2-0.6-2.3-1.3-3.6-2.1c0.6,0.5,0.6,1.3-1.6-0.2c0.8-0.3-0.2-1-1.4-2c-1.2-1-2.8-2.1-3.3-3.2
							c0.5,0.8-0.9-0.3-2.3-1.3c-1.4-1-2.6-2-1.8-0.7c-1.6-1.5,0.2-0.5-0.8-1.8c-4.2-3-8-8.1-12-13c-0.2,0,0.2,1-0.8,0.1
							c-0.5-1-0.9-2.2-1.3-3.2c-0.8-1-1.6-0.3-2.3-2.6c0.1,0.4,0.1,0.9-0.4,0.2c-3.1-5.5-6.2-11.1-8.6-17c-2.4-6-4.1-12.3-4.3-18.6
							c0,1.7-0.3,0.6-0.5-0.7c0.1,0.9-0.4,0-0.6,0.2c0-1.8,0-3.6,0-5.4c-0.4-0.5-0.5-1.9-0.6-3.2c-0.1-1.4-0.1-2.7-0.4-3l0.2,1.7
							c-0.4-1.1-0.8-0.3-1.2,0.8c-0.4,1.1-0.7,2.4-1.2,2.3c0.3,0.6,0.3,1.4,0.3,2.2c0,0.8,0,1.7,0,2.7c-0.1,1.9,0.1,4.1,1.1,6.1
							c0,1-0.4-0.7-0.6-0.2c0.6,1,1,2.2,1.3,4.6l-0.2-0.2c0.4,1.7,0.8,3,1.2,4.4c0.3,1.3,0.7,2.5,1,3.7s0.7,2.5,1.2,3.9
							c0.5,1.4,1,2.9,1.7,4.7l0.2-0.7c0.6,1.5,0.6,1.9,0.8,2.7c1.4,1.4-1.9-4.2-0.4-3c0,0.6,0.3,1.5,0.7,2.7
							c0.4,1.1,1.1,2.4,1.8,3.6c0.6,1.3,1.3,2.4,1.8,3.5c0.5,1,0.8,1.9,0.8,2.3c1.4,2.1,0.1-0.9,1.4,1.2l0.1,0.7l0.7,0.3
							c0.8,1.4,1.1,2.3,0.9,2.5c-0.2-0.4-0.7-0.9-1-1.2c0.5,1,1.4,2.2,2.2,3.3c0.8,1.1,1.7,1.9,1.8,2.2c-0.4-0.7-0.9-1.4-1.4-2
							c1.1,1.3,2.3,2.8,3.5,4.2c1.2,1.4,2.4,2.9,3.8,4.2c0.7,0.7,1.3,1.4,2,2c0.7,0.6,1.4,1.3,2.1,1.9c1.3,1.3,2.8,2.3,4.1,3.3
							l-0.2-0.5c1,0.8,1.7,1.3,2.3,1.7c0.6,0.4,0.9,0.8,1.3,1.2c0.8,0.8,1.6,1.5,4,3l-0.2-0.1c1,0.5,2.3,1.2,3.6,2
							c-1.3-0.5,2,1.9,0.2,1.1c2.5,1.3,3.1,1.5,3.6,1.6c0.5,0.1,0.7,0.1,2.5,0.5l0.6,0.7c1.3,0.2,1.4,0.2,3.9,1.3
							c-2.2-0.6,1.4,1.2-1.1,0.6c1.2,0.8,2.4,1.4,3.4,1.8c1.1,0.4,2,0.7,2.9,0.9c1.7,0.5,3,0.9,4.1,1.8c1.4-0.1,0.3-0.6-1-1.1
							c-1.3-0.5-2.8-1-2.1-0.8c-0.5-0.4,0.1-0.4,1-0.1c0.9,0.2,2.2,0.5,3,0.9c0.9,0.3,1.5,0.9,2.5,1.5c0.5,0.3,1.1,0.6,1.9,1
							c0.4,0.2,0.8,0.3,1.3,0.5c0.5,0.1,1,0.3,1.6,0.4c-0.5-0.1-0.5,0-1-0.1c0.8,0.3,1.7,0.4,2.6,0.6c0.4,0.1,0.9,0.1,1.4,0.3
							c0.5,0.1,1,0.2,1.5,0.4c1.3-0.4,2.8,0.5,3.2-0.2l-4.3-0.6c1.2,0.1,2.4,0,3.8,0.1c1.4,0,2.9,0.1,4.9,0.6
							c-0.3,0.1-1.5,0.2-2.4,0.2c1.1,0.4,2.3,0.2,3.4,0.5c-0.2,0.4-1.5,0.3-3.1,0.1c-0.8-0.1-1.7-0.2-2.5-0.3
							c-0.8-0.1-1.6-0.2-2.3-0.1c0.6,0.3,1.9,0.4,2.8,0.4s1.5,0.1,0.8,0.4c1-0.4,2.2-0.2,3.5,0c1.3,0.2,2.8,0.4,4.4,0.1l-0.2,0.5
							c0.5,0,1.6-0.2,2.5-0.2l-1.7,0.6c2.6-0.5,5,0.6,7.5,0.2c-2.6,0.1-2.9-0.1-2.8-0.3s0.5-0.4-0.6-0.6c6.4-0.8,3.7,1.3,10.9,0.5
							c-1,0.2-3.7,0-2.2-0.3c1.4,0,3.2,0,4.1,0.1c4.7-0.7-0.8-0.4,1.2-0.9c1.7,0.4,2.3-0.6,4.3-1.1l0.1,0.5c1.4-0.1,2.1-0.3,2.5-0.5
							c0.4-0.2,0.6-0.3,0.7-0.5c0.2-0.3,0.4-0.6,2.8-1l-1.9,1.1c0.8-0.3,1.6-0.5,2.4-0.8l-0.4,0.7c1.3-0.6,2.1-0.9,3-1.1
							s1.8-0.4,3.1-0.8c-0.7-0.1,0.1-1,2.3-1.7c1.6-0.3-0.7,0.8,2.4-0.5c-0.6,0.5-1.2,1.3-2.8,1.3c-0.1,0.2-0.6,0.5-0.7,0.7
							c1.8-0.2,4.2-1.5,5.4-1.9c-0.4,0.2-1,0.3-1.3,0.4c0.7-0.4,1.5-0.8,2.2-1.2l2.1-1.3c0.8-0.1,0.3,0.2-0.2,0.6
							c0.9-0.5,1.4-0.9,2.7-1.6c-0.2,0.5,0.1,0.9-1.7,1.9c1.4-0.8,2.7-1.6,4.1-2.5c0.4,0,2.4-0.7,1.9-0.3c1.2-0.6,2.5-1.5,3.9-2.5
							c1.4-1.1,2.8-2.2,4.3-3.1c0.1-0.2,0.4-0.4,0.9-0.9c0.7-0.5,1.4-0.9,2-1.3c0.7-0.4,1.3-0.9,2-1.4c0.6-0.5,1.3-1,2-1.5
							c0.6-0.6,1.3-1.2,1.9-2c0.7-0.3,1.4-0.6,2.1-0.9c2.1-2.2-2.8,1.4,0.7-2.3c2.4-2.6,1.4-0.5,2.4-1.2c0.5-0.8,1.1-1.8,2-3
							c0.8-1.1,1.8-2.4,3.1-3.4C245.3,367.6,244.6,368.2,244,369z M262.5,336.9c-0.1,0.4-0.1,0.9-0.3,1.4c-0.1,0.5-0.3,1-0.5,1.2
							C261.5,338.5,262,338,262.5,336.9z M263.7,281.5c0.3,0.5,0.4,1.3,0.4,2.2C263.9,283,263.8,282.3,263.7,281.5z M142.5,219.2
							C142.5,219.1,142.5,219.1,142.5,219.2C144.1,218.8,143.5,218.9,142.5,219.2z M139.4,220.1c-0.3,0.2-0.2,0.2-0.1,0.2
							c0.2-0.2,0.8-0.5,1.6-0.7C140.7,219.5,140.3,219.6,139.4,220.1z M150.3,394.2l0.6,0.3C149.5,394.3,149.9,394.3,150.3,394.2z"
							/>
						<path class="st3" d="M265.7,287.5c0,0.2-0.1,0.3-0.2,0.4C265.6,288.1,265.7,288.1,265.7,287.5z"/>
						<path class="st3" d="M226.8,384.6l-0.1,0.1c0,0.1-0.1,0.1,0,0.1L226.8,384.6z"/>
						<path class="st3" d="M188.7,211.3c0.7,0.2,1,0.3,1.3,0.5C190,211.7,189.8,211.5,188.7,211.3z"/>
						<path class="st3" d="M124.7,228.2c0.5-0.4,1.1-0.8,1.7-1.1c-0.8,0.5-1.2,0.6-1.7,0.8C124.8,228,125.2,227.9,124.7,228.2z"/>
						<path class="st3" d="M108.7,236.7c-0.2,0.2-0.5,0.4-0.6,0.7l0.2,0.1C109.2,236.6,109.8,235.8,108.7,236.7z"/>
						<path class="st3" d="M122.3,227.9c-0.3-0.2-1.4,0.5-2.5,1.4c0.1-0.1,0.1-0.1,0.2-0.1C119.9,229.9,121.1,228.9,122.3,227.9z"/>
						<path class="st3" d="M119.5,229.6c-0.3,0.3-0.7,0.6-1.1,0.8C118.4,230.6,118.9,230.1,119.5,229.6z"/>
						<path class="st3" d="M135.8,221.8c-0.7,0.2-0.2,0.6-0.6,0.7C134.7,223.3,139.1,220.1,135.8,221.8z"/>
						<polygon class="st3" points="120.6,227.4 121.3,227.6 121.7,226.8 						"/>
						<path class="st3" d="M130.7,222l-2.1,0.9c0.1,0.1-0.2,0.2-0.5,0.4C129.4,222.7,130.8,222.1,130.7,222z"/>
						<path class="st3" d="M128.1,223.4c-0.7,0.3-1.3,0.7-1.6,1C126.9,224.1,127.6,223.7,128.1,223.4z"/>
						<path class="st3" d="M123.2,225.6l0.6-0.3l1.4-0.8C124.6,224.9,123.8,225.2,123.2,225.6z"/>
						<path class="st3" d="M154.4,214l2.5-0.6c0.2-0.2-0.5-0.2-1.4,0C154.9,213.7,154,213.9,154.4,214z"/>
						<path class="st3" d="M146.6,214.5c0.7-0.1,0.8,0,1.2,0.1l-0.1-0.6L146.6,214.5z"/>
						<path class="st3" d="M153.8,212.6c0.2-0.2,3.6-1.1,0.4-0.5C154,212.3,151.5,212.9,153.8,212.6z"/>
						<polygon class="st3" points="192.3,213.8 191.7,213.6 191.6,214.6 						"/>
						<path class="st3" d="M224.8,224.8c-2.5-1.9-0.9,0.1-3.2-1.6c-0.7-0.2,1.8,1.4,1.1,1.2C224.4,225.2,225.2,225.9,224.8,224.8z"
							/>
						<path class="st3" d="M222.7,224.4c-0.3-0.1-0.6-0.3-0.9-0.4C222.3,224.3,222.6,224.4,222.7,224.4z"/>
						<path class="st3" d="M81.3,310.5c0-0.6,0.1-1.3,0.1-1.9l-0.3,1.2C81.2,310.1,81.3,310.3,81.3,310.5z"/>
						<path class="st3" d="M80.5,306.9l0.6-0.5l-0.6-1.1C80.5,305.8,80.6,306.6,80.5,306.9z"/>
						<path class="st3" d="M265.5,332l-0.1-0.2c-0.2,0.2-0.4,0.7-0.7,1.6L265.5,332z"/>
						<polygon class="st3" points="253.9,356.6 254.2,356.3 253.2,356.7 						"/>
						<path class="st3" d="M240.1,374.9c0.7-0.6,1.4-1.5,2.1-2.2C240.8,374.3,239.4,374.6,240.1,374.9z"/>
					</g>
				</g>
			</g>
		</g>
	</g>
</g>
</svg>
