<?xml version="1.0" encoding="utf-8"?>
<!-- Generator: Adobe Illustrator 25.1.0, SVG Export Plug-In . SVG Version: 6.00 Build 0)  -->
<svg version="1.1" id="Layer_1" xmlns="http://www.w3.org/2000/svg" xmlns:xlink="http://www.w3.org/1999/xlink" x="0px" y="0px"
	 viewBox="0 0 350 612" style="enable-background:new 0 0 350 612;" xml:space="preserve">
<style type="text/css">
	.st0{fill:#232626;}
	.st1{font-family:'BrushScriptMT';}
	.st2{font-size:97.8236px;}
	.st3{fill:#DBBFBE;}
	.st4{fill:#BDD6D8;}
</style>
<g>
	<text transform="matrix(1 0 0 1 104.2888 334.9816)" class="st0 st1 st2">MZ</text>
	<g>
		<g>
			<g>
				<g>
					<g>
						<path class="st3" d="M272.42,306.74c-0.01,0.93,0.4,0.59,0.48,0.73C272.76,305.92,272.31,306.78,272.42,306.74z"/>
						<polygon class="st3" points="270.21,291.66 270.43,291.89 269.62,289.76 						"/>
						<path class="st3" d="M266.98,277.86c-0.32,1.49,1.59,4.89,1.84,7.43l-0.07,0.44l0.82,0.99c-0.41-1.49-0.87-3.2-1.39-4.76
							C267.65,280.39,267.2,278.92,266.98,277.86z"/>
						<path class="st3" d="M265.86,270.17c-0.08,0.54-0.83-1.46,0.58,1.7c-0.03-0.17-0.04-0.22-0.05-0.33
							C266.26,271.26,266.11,270.86,265.86,270.17z"/>
						<path class="st3" d="M266.38,271.54C266.96,272.95,266.23,270.54,266.38,271.54L266.38,271.54z"/>
						<path class="st3" d="M263.51,265.16l1.05,1.72c-0.02-0.45-0.72-2.09-0.34-1.53C263.24,263.53,263.27,263.99,263.51,265.16z"/>
						<path class="st3" d="M262.24,263.68c0.19,0.29,0.38,0.58,0.54,0.88C262.77,264.37,262.68,264.1,262.24,263.68z"/>
						<path class="st3" d="M263.88,266.46l-1.1-1.9c0.02,0.31-0.18,0.44,0.49,0.88C263,265.37,263.36,265.67,263.88,266.46z"/>
						<path class="st3" d="M264.29,267.63c0.33,1.07,0.75,2.45-0.23,0.71c0.78,1.72,1.19,2.43,1.26,2.25
							C265.37,270.42,265.12,269.34,264.29,267.63z"/>
						<path class="st3" d="M266.05,277.4c0.09,0.48,0.18,0.96,0.24,1.46l0.58,1.15c-0.14-0.29-0.29-0.98-0.42-1.58
							C266.3,277.82,266.13,277.32,266.05,277.4z"/>
						<path class="st3" d="M257.89,254.06c-0.2-0.02,0.02,0.78-0.07,1.01c0.32,0.38,0.61,0.77,0.91,1.17
							C258.46,255.52,257.75,254.27,257.89,254.06z"/>
						<path class="st3" d="M257.83,255.07l-1.41-1.71C257.45,255.02,257.75,255.26,257.83,255.07z"/>
						<path class="st3" d="M261.36,263.72c0.73,0.97,1.33,2,2.01,3.01c-0.76-1.23-1.49-2.45-2.33-3.62L261.36,263.72z"/>
						<path class="st3" d="M253.15,247.08l1.02,0.81c-0.57-0.51-1.15-1-1.76-1.47L253.15,247.08z"/>
						<path class="st3" d="M249.6,242.74c0.83,0.52-0.46-1.28,0.32-0.65c-1.05-1.12-2.07-1.96-3.03-2.67
							C247.83,240.25,248.66,241.29,249.6,242.74z"/>
						<path class="st3" d="M245.3,238.21c0.48,0.4,1.01,0.78,1.59,1.2C246.39,238.98,245.87,238.58,245.3,238.21z"/>
						<path class="st3" d="M254.4,250.21c-0.02-0.19-0.02-0.6-0.65-1.66l0.15,0.95C254.05,249.72,254.23,249.97,254.4,250.21z"/>
						<path class="st3" d="M253.91,249.54l-0.01-0.03c-0.53-0.77-0.9-1.3-1.06-1.53C252.98,248.17,253.3,248.64,253.91,249.54z"/>
						<path class="st3" d="M254.52,250.39c-0.05-0.07-0.08-0.11-0.12-0.18C254.41,250.31,254.43,250.35,254.52,250.39z"/>
						<path class="st3" d="M259.02,258.49c-0.85-1-2.39-3.17-1.42-0.75C258.31,258.39,257.75,257,259.02,258.49z"/>
						<path class="st3" d="M254.7,251.57c0.42,0.65,0.79,1.33,1.18,1.99c0.07-0.1-0.02-0.54,0.43-0.07
							C255.77,252.85,255.26,252.19,254.7,251.57z"/>
						<polygon class="st3" points="253.93,250.72 254.7,251.57 254.23,250.85 						"/>
						<path class="st3" d="M247.71,241.44c-0.4-0.32-0.78-0.68-1.17-1.08c-0.4-0.39-0.81-0.8-1.26-1.24
							c0.86,1.02,1.75,2.07,2.59,3.07C248.1,242.23,248.66,242.51,247.71,241.44z"/>
						<path class="st3" d="M250.8,245.32c-0.05-0.05-0.11-0.11-0.16-0.16C250.7,245.29,250.76,245.39,250.8,245.32z"/>
						<path class="st3" d="M236.4,230.71c0.03,0.06,0.06,0.12,0.1,0.19c0.03-0.01,0.05-0.02,0.08-0.03L236.4,230.71z"/>
						<path class="st3" d="M247.96,242.4c0.59,0.81,1.06,1.19,1.54,1.54c-0.52-0.54-1.06-1.12-1.62-1.76
							C247.78,242.16,247.74,242.17,247.96,242.4z"/>
						<path class="st3" d="M242.76,235.9c0.32,0.42,0.68,0.9,1.07,1.39C243.58,236.82,242.98,235.95,242.76,235.9z"/>
						<path class="st3" d="M250.52,244.82c0.04,0.04,0.07,0.07,0.11,0.11C250.5,244.61,250.49,244.67,250.52,244.82z"/>
						<path class="st3" d="M250.52,244.82c-0.37-0.37-0.7-0.62-1.03-0.88c0.41,0.46,0.79,0.87,1.14,1.22
							C250.59,245.04,250.55,244.92,250.52,244.82z"/>
						<path class="st3" d="M231.82,230.57c0.19-0.1,0.84,0.17,1.64,0.68c0.81,0.5,1.72,1.29,2.41,2.18c1.84,1.2,1.64-0.7,0.62-2.54
							c-0.17,0.1-0.24,0.17-2.2-1.05c0.54,0.62,3.55,3.64,1.87,2.66c-1.19-0.92-1.66-1.31-1.94-1.64c-0.28-0.33-0.37-0.58-0.88-1.11
							c0.68,1.14-3.45-1.78-3.38-0.77c0.77,0.42,1.49,0.91,2.23,1.37C232.17,230.48,231.31,230.04,231.82,230.57z"/>
						<path class="st3" d="M239.77,233.81l0.72,0.62c-0.72-0.81-1.2-1.42-2.08-2.59c-1.32-0.89-1.66-0.99-1.83-0.96
							c1.16,1.04,2.35,2.04,3.47,3.12L239.77,233.81z"/>
						<path class="st3" d="M243.54,237.38c-0.8-0.26-2.59-1.65-1.91-0.37c1.98,1.91,1.6,1.12,2.89,2.17
							c-3.16-3.15,1.06,0.76-0.99-1.74c0.66,0.59,1.22,1.14,1.75,1.67c-0.52-0.62-1.01-1.23-1.46-1.82
							c0.02,0.04,0.03,0.06,0.05,0.09l0.02,0.01l-0.01,0c0.09,0.18,0.12,0.25-0.01,0.07c-0.01-0.01-0.05-0.05-0.07-0.06
							C243.74,237.43,243.64,237.41,243.54,237.38c-0.83-1-0.06-0.23,0.26,0.03c0.03,0,0.06,0.01,0.08-0.01c0,0-0.01-0.01-0.01-0.02
							c-1.08-1.04-2.26-1.98-3.39-2.96C241.13,235.14,242.03,235.91,243.54,237.38z"/>
						<path class="st3" d="M255.6,256.19c-0.04-0.13-0.01-0.15,0.01-0.17C255.41,255.81,255.32,255.74,255.6,256.19z"/>
						<path class="st3" d="M254.84,254.53c0.22,0.24,0.51,0.37,1.04,1.27c0.38,0.83-0.18,0.1-0.27,0.22
							c0.44,0.46,1.43,1.71,0.56-0.08l-0.22-0.23c-0.83-1.57-1.63-3.81-1.41-3.58C254.51,252.79,254.53,253.33,254.84,254.53z"/>
						<path class="st3" d="M249.5,245.67c-0.8-0.94-1.68-1.81-2.53-2.7l0.94,1.66l0.11-0.22
							C249.29,246.09,249.19,245.58,249.5,245.67z"/>
						<path class="st3" d="M236.21,230.27l0.67-0.02c-0.68-0.32-1.4-0.58-2.09-0.86L236.21,230.27z"/>
						<path class="st3" d="M232.35,227.3l0.38-0.2c-0.39-0.2-0.79-0.38-1.19-0.56L232.35,227.3z"/>
						<path class="st3" d="M90.6,355.95l0.62,0.85C90.94,356.39,90.75,356.13,90.6,355.95z"/>
						<path class="st3" d="M87.02,349.27l-0.26-0.08C87.01,349.46,87.15,349.55,87.02,349.27z"/>
						<path class="st3" d="M119.85,222.42c-1.54,0.55-3.38,1.05-2.97,1.31l0.65,0.09C118.44,223.16,119.19,222.74,119.85,222.42z"/>
						<path class="st3" d="M76.95,288.31c0.07-0.14,0.14-0.28,0.21-0.42c-0.06-0.4-0.12-0.78-0.17-1.11
							C76.97,287.23,76.93,287.75,76.95,288.31z"/>
						<path class="st3" d="M78.52,289.72l-0.63,1.94C78.06,291.23,78.27,290.61,78.52,289.72z"/>
						<path class="st3" d="M118.94,385.57c0.41,0.11,0.82,0.23,1.25,0.32C118.62,384.83,119.19,385.47,118.94,385.57z"/>
						<path class="st3" d="M186.7,208.6c-1.35-0.34-2.43-0.55-3.39-0.7C184.94,208.36,186.21,208.9,186.7,208.6z"/>
						<path class="st3" d="M85.08,355.59c0.4,0.54,0.62,0.75,0.7,0.68C85.37,355.71,85.11,355.41,85.08,355.59z"/>
						<path class="st3" d="M179.32,207.57c0.24,0.06,0.48,0.1,0.72,0.16c1.01,0.02,2.04-0.01,3.26,0.18
							C182.1,207.57,180.69,207.39,179.32,207.57z"/>
						<path class="st3" d="M251.28,360.63c0.08-0.08,0.15-0.19,0.23-0.26C251.48,360.32,251.39,360.44,251.28,360.63z"/>
						<path class="st3" d="M271,320.72c-0.03,0.45-0.12,1.18-0.2,1.87C270.87,322.26,270.93,321.7,271,320.72z"/>
						<path class="st3" d="M215.69,217C216.63,217.42,215.86,217.02,215.69,217L215.69,217z"/>
						<path class="st3" d="M219.35,220.79c-0.22-0.06-0.39-0.08-0.46,0C219.02,220.74,219.17,220.74,219.35,220.79z"/>
						<path class="st3" d="M169.12,210.1c-0.03,0-0.05,0-0.09,0C169.33,210.18,169.28,210.16,169.12,210.1z"/>
						<path class="st3" d="M216.99,217.87c-0.32-0.22-0.7-0.47-1.12-0.72C216.05,217.28,216.39,217.5,216.99,217.87z"/>
						<path class="st3" d="M216.9,217.59c0.31,0.18,0.55,0.32,0.79,0.45C217.83,218.04,217.75,217.94,216.9,217.59z"/>
						<path class="st3" d="M214.36,216.42c0.54,0.24,1.04,0.48,1.51,0.73c-0.17-0.11-0.24-0.17-0.18-0.16
							C215.41,216.88,215.01,216.71,214.36,216.42z"/>
						<path class="st3" d="M185.1,402.83c0.07,0,0.14,0.01,0.22,0.01C186.29,402.54,185.86,402.63,185.1,402.83z"/>
						<path class="st3" d="M102.48,242.52c0.03-0.04,0.04-0.06,0.06-0.1c-0.04,0.03-0.08,0.07-0.11,0.09L102.48,242.52z"/>
						<path class="st3" d="M100.37,245.38c0.58-1.48,1.17-2.12,2.06-2.86c-0.57,0-1.16,0-1.73,0.02L100.37,245.38z"/>
						<path class="st3" d="M101.39,370.5l-1.32-2.12c2.43,1.84,3.67,3.57,2.56,1.48c-0.6,0.31-2.25-1.42-3.76-3.28
							c-0.75-0.93-1.5-1.86-2.15-2.52c-0.61-0.69-1.13-1.11-1.45-0.98l-0.71-1.49c0.26,0.39,0.37,0.4,0.62,0.79
							c-1.31-2.94-2.16-1.37-4.24-4.94c-0.66-1.27-0.96-2.25-0.35-1.49l-1.88-2.59c-0.43-0.82-0.12-0.73,0.32,0.08
							c-0.82-1.39-1.55-2.84-2.34-4.26l0.05,0.01c-0.51-0.52-1.43-1.83-1.89-2.47c-0.33-1.21,0.39,0.51,0.41,0.15
							c-0.46-0.78-0.96-1.55-1.4-2.34c-0.04-0.58,0.22-0.38,0.58,0.18c0.38,0.55,0.87,1.45,1.23,2.31c0.1-1.42-0.21-1.88-0.72-2.66
							c-0.47-0.79-1.18-1.9-1.77-4.56c0.33,0.78,0.72,1.53,1.07,2.29c0.07-0.9-0.18-1.76-0.43-2.78c-0.25-1.02-0.59-2.17-0.81-3.58
							c-0.03,0.69,0.68,5.78-0.57,3.14c-0.16-0.82-0.48-1.85-1.22-3.26c0.46-0.16-0.07-1.59-0.62-3.43l0.65-0.04
							c-0.75-1.93-0.95-1.72-1.53-2.84c-0.46-2.27-0.09-2.84,0.24-3.45c-0.55-3.64-0.33,2.66-1.22-1.62
							c-0.08-0.77-0.17-1.48-0.29-2.16c-0.09-0.69-0.19-1.35-0.32-2.04c-0.25-1.37-0.64-2.8-0.93-4.63
							c0.06-2.18,0.42,0.35,0.54-0.44l-0.65-1.87c-0.02-0.47,0.14-0.33,0.23-0.25c-0.28-1.6-0.65-0.1-0.9-2.65
							c-0.35-0.33-0.17-1.66,0.1-3.28c0.3-1.62,0.53-3.53,0.25-5.12c0.24-0.76,0.36,0.4,0.63,0.17c-0.2-4.34-0.14-3.71-0.38-7.33
							c0.26-0.99,0.52-1.97,0.86-2.94c-0.87,2.12-0.93-0.77-0.94-3.36c-0.37,0.74-0.69,1.39-0.87,1.83
							c0.12-1.35,0.24-2.71,0.46-4.06c0.21-0.46,0.34-0.01,0.45,0.7c0.01-0.28,0.01-0.55,0.02-0.76c0.56-1.36,0.75-0.54,0.86,0.54
							c-0.24,0.45-0.48,0.9-0.71,1.33c0.21,1.06,0.47,2.05,0.87,1.91c-0.03-0.27,0-0.77,0.06-1.32c0.06,0.27,0.12,0.45,0.21,0.35
							c0.1-0.12,0-0.56,0-1.23l0.9-0.73l-0.23-0.27c0.53-1.66,1.05-3.31,1.7-4.92c0.08-0.94,0.13-1.86,0.19-2.81
							c0.1-0.93,0.2-1.89,0.34-2.91c0.13-1.03,0.31-2.12,0.63-3.29c0.32-1.17,0.64-2.48,1.2-3.87c-0.13,1.56,0.65,0.63,1.19,0.95
							c-0.64,0.61-0.97,1.72-1.34,3c-0.18,0.64-0.37,1.33-0.56,2.04c-0.18,0.72-0.39,1.44-0.67,2.16c0.58-1.49,0.74-1.06,0.71-0.64
							c0.35-1.79,0.89-3.53,1.36-5.31c0.42,0.3,0.77-0.94,1.56-2.14c-0.68,0.29-0.41-0.71,0.1-2.05c0.49-1.36,1.4-2.97,1.76-4.04
							c0.36,0.03,0.42,0.67-0.88,3.04c2.05-2.3,0.66-4.02,2.73-6.26c-0.32,0.58-0.55,0.87-0.53,1.18c0.26-0.74,0.91-1.91,1.47-2.78
							c0.57-0.86,1.1-1.38,0.98-0.94l-0.35,0.56c0.62-0.91,1.38-2.07,2.17-3.31c0.81-1.23,1.71-2.49,2.49-3.71
							c1.64-2.36,2.96-4.41,2.86-4.93c0.11,0.04,0.41,1.09,0.39,1.41c0.94-2.6,1.94-5.24,3.14-7.82c0.05,1.01,3.13,0.3,0.92,3.22
							c0.81-0.67,1.73-1.57,3.14-3.27c-0.59,0.41-2.03,0.49-1.37-0.24c2.53-1.26,1.64-1.01,4.55-2.72
							c-0.91,0.58-0.78-1.04,0.54-2.14c-0.09,0.3,0.84,0.76,0.45,1.26c0.81-1.21,1.63-2.42,2.53-3.56
							c-0.71,0.81,0.45,0.86,1.38,0.53c-0.24,0.05,0.48-0.51,1.35-1.17c0.89-0.64,1.98-1.35,2.4-1.73l-1.6,0.82
							c3.95-2.61,2.95-4.02,7.07-6.49c-0.39,0.49-0.49,1.93,1.66,0.86c0.63-1.05,2.9-4.87,6.67-7.06l0.89-0.04
							c0.95-0.56,1.89-1.15,2.88-1.65c-0.81,0.74-2.31,2.2-3.91,3.63c-1.59,1.45-3.21,3.05-4.39,4.05c1.69-0.59,0.62,0.11,2.96-1.12
							c0.97-0.15-1.07,1.07-1.75,1.44c1.85-0.87,3.68-1.77,5.58-2.51c-0.26-0.25,0.74-0.89,1.75-1.52c1.03-0.58,2.09-1.15,1.88-1.36
							c-2.02,0.99-3.94,2.19-5.87,3.3c-0.27-0.25,0.4-1.07,1.67-2.06c0.64-0.48,1.41-1.05,2.31-1.52c0.9-0.47,1.9-0.93,2.94-1.31
							c1.14-0.16-0.36,1.43-0.19,1.6c0.23-0.2,1.14-0.73,2.09-1.1c0.95-0.38,1.89-0.72,2.11-0.7l-1.64,0.94
							c1.19-0.27,2.06-0.8,3.01-1.3c0.95-0.49,2.01-0.89,3.5-0.99c0.98-0.27,3.13,0.08,3.2-0.34c-1.77-0.38-2.71-2.6-1.74-3.41
							c0.18-0.02,1.56-0.13,3.05-0.26c1.48-0.14,3.08-0.08,3.69-0.02c1.76,0.3-2.24,1.86-0.73,2.11c0.03-0.19,0.9-0.58,1.26-0.72
							c1.08-0.03-0.34,0.64,1.93,0.15c0.28-0.73,4.69-0.54,1-0.71c1.12-0.24,1.72-0.28,2.38-0.31c0.66-0.02,1.36-0.06,2.69-0.16
							c-0.9-0.35,2.27-1.73,4.6-2c-0.13,0.18,0.4,0.39,0.65,0.49c1.18-0.01,2.22-0.01,3.19,0c0.97,0.05,1.86,0.13,2.75,0.19
							c0.88,0.06,1.75,0.13,2.68,0.2c0.92,0.1,1.9,0.2,2.99,0.28c0.39,0.19,2.47,0.57,1.55,0.78c0.63-0.05,1.23-0.2,2.57-0.05
							c2.51,0.91-2.98-0.29-1.1,0.67c0.21-0.35,3.52-0.17,5.44-0.01c-0.24-0.34-1.33-0.61-2.61-0.69c-1.28-0.08-2.74-0.08-3.7-0.08
							c0.04-0.42,0.91-0.74,2.37-0.94c0.73-0.09,1.61-0.18,2.59-0.17c0.98,0.02,2.07,0.09,3.24,0.2c1.85,0.21,2.2,0.49,2.19,0.62
							c-0.01,0.15-0.4,0.22-0.07,0.24c1.68,0.43,2.9,0.63,3.87,0.73c0.96,0.14,1.69,0.17,2.37,0.21c1.37,0.06,2.61,0.12,5.26,1.37
							c2,1.24-0.26,1.04,0.1,1.57c-1.45-0.38-2.5-0.84-3.45-1.25c-0.96-0.38-1.79-0.76-2.77-1.02l2.33,0.93
							c-0.97-0.09-2.92-0.5-3.92-0.95c0.43,0.25,1.34,0.57,2.54,0.95c0.6,0.18,1.27,0.39,1.99,0.61c0.71,0.25,1.47,0.51,2.26,0.78
							c0.78,0.28,1.6,0.54,2.4,0.84c0.8,0.33,1.59,0.65,2.37,0.97c1.56,0.62,2.99,1.35,4.15,1.99c0.93,0.22,2.49,0.72,1.88,0.21
							l-1.56-0.62c-1.23-1.03,3.14,0.76,1.28-0.3c1.11,0.3,2.25,0.73,3.5,1.2c0.62,0.25,1.26,0.52,1.91,0.84
							c0.64,0.35,1.29,0.74,1.96,1.2l0.22,0.83c0.03-0.19-1.63-1.36-2.51-1.64c1.29,0.45,3.86,3.1,5.47,3.26
							c-0.56-0.52-1.1-1.06-1.69-1.55c1.08,0.43,2.26,0.96,3.51,1.53c1.25,0.56,2.49,1.3,3.6,2.22c-0.72-1.25-0.57-0.33-1.85-2.09
							c1.01,1.68-6.19-4-4.28-1.69c-0.69-0.88-1.44-1.4-2.25-1.96c-0.82-0.55-1.71-1.15-2.78-2.07c-0.02,0.22,0.69,0.79-1.42-0.41
							c-0.12,0-0.39-0.05-0.55-0.08c-0.06-0.04-0.08-0.05-0.14-0.09c0.04,0.03,0.07,0.05,0.11,0.08c-0.11-0.02-0.12-0.02,0.04,0.03
							c0.47,0.34,0.84,0.65,0.96,0.83c-0.64-0.06-1.8-0.56-2.97-1.02c-1.19-0.44-2.37-0.92-3.01-1.07
							c-1.26-0.67,0.64,0.03,0.01-0.49c-0.63-0.16-1.27-0.31-1.91-0.42c0-0.48-3.26-2.09-0.02-1.09l-2.83-1.14
							c-1.59-0.85-3.92-1.73-5.42-2.01c-1.36-0.49-3.63-0.51-2.33-0.51c-0.78-0.17-1.55-0.35-2.33-0.51l-2.35-0.4l-0.02-0.12
							c-2.28-0.61-4.71-0.79-7.18-1.15c-2.49-0.22-5.04-0.61-7.69-1.16c-0.79,0-1.6-0.01-2.54-0.03c-0.94,0.01-2.01-0.02-3.33-0.11
							l-0.51-0.4c-1.02,0.01-2.55-0.02-3.94-0.05c-1.39-0.03-2.63-0.04-3.06,0.22c-0.56-0.22-1.47-0.3-2.56-0.29
							c-0.55,0-1.14,0.03-1.77,0.07c-0.62,0.06-1.27,0.16-1.93,0.25c-1.32,0.21-2.68,0.39-3.92,0.64c-1.24,0.26-2.38,0.48-3.27,0.59
							l-0.04,0.52c-1.22,0.18-2.38,0.54-3.62,0.86c-0.62,0.18-1.25,0.36-1.91,0.55c-0.66,0.21-1.34,0.47-2.06,0.72l0.3,0.38
							c-1.21,0.55-2.86,0.88-4.66,1.4c-0.91,0.25-1.86,0.5-2.84,0.77c-0.97,0.3-1.94,0.67-2.9,1.05c0.2-0.26,1.2-0.61,1.93-0.78
							c-1.24,0.22-2.47,0.61-3.66,1.1c-1.18,0.52-2.32,1.16-3.44,1.78c-1.13,0.6-2.19,1.32-3.27,1.91c-1.07,0.6-2.15,1.1-3.2,1.52
							c-0.89,0.7-1.62,1.06-2.36,1.35c0.09-0.05,0.17-0.11,0.23-0.16c-0.1,0.06-0.25,0.14-0.4,0.22c-0.47,0.17-0.95,0.37-1.45,0.61
							c0.46-0.16,0.88-0.33,1.24-0.49c-0.74,0.44-1.81,1.22-2.83,2l-0.73-0.11c-0.09,0.06-0.15,0.11-0.24,0.17
							c-1.17,0.54-0.73,0.74,0.04,0.68c-0.51,0.4-0.92,0.84-1.23,1.2c-1.27-0.02-2.61,2.11-4.18,2.34c-0.22,0.43-1.44,1.49-2.6,2.57
							c-1.12,1.14-2.17,2.31-2.15,2.84c-0.11-0.05-0.43,0.15,0.09-0.3c-1.16,0.84-2.24,1.76-3,2.82l-0.86-0.02l-0.84,1.37
							l-0.78,1.41c-1.56,1.1-2.27,1.53-1.31-0.16c-0.65,0.95-1.13,1.6-1.5,2.1c-0.35,0.51-0.61,0.87-0.86,1.21
							c-0.49,0.68-0.95,1.28-1.91,2.98l-0.19-0.4c-0.84,1.1-1.78,3.14-2.55,3.6c-0.61,0.5-1.46,1.54-2.49,2.89
							c-1.05,1.34-2.11,3.11-3.33,4.95c-2.28,3.79-4.62,8.23-6.5,11.75c0.86-0.46,0.34,0.31-0.26,1.31
							c-0.57,1.01-1.27,2.23-0.9,2.54c-0.43,0.33-0.98,1.31-0.73,0.02c-0.66,1.93-1.17,3.36-1.68,4.64
							c-0.51,1.28-0.81,2.46-0.83,3.91c-0.39,0.37-0.15-0.95-0.42-0.6c-0.03,0.33-0.12,1.31-0.4,1.67c-0.27,0.36-0.06-0.63,0-1.29
							c-0.27,1.01-0.44,1.8-0.51,2.44c-0.05,0.64-0.02,1.11,0.06,1.47c0.16,0.72,0.52,0.99,0.88,1.22c-0.42,0.97-0.67,1.72-0.8,2.42
							c-0.09,0.7-0.06,1.36,0.06,2.15c-0.38,0.66-0.87,1.82-0.51-0.72c-0.08,0.35-0.23,1.07-0.41,1.95
							c-0.09,0.44-0.19,0.92-0.29,1.41c-0.07,0.5-0.14,1.02-0.22,1.52c-0.27,2.03-0.44,3.9-0.1,4c-0.2,0.43-0.2,2-0.15,2.38
							c-0.15,1.61-0.23,2.48-0.25,3.35c-0.03,0.87-0.05,1.73-0.06,3.32l0.13-0.88c0.71,1.25,0.17,2.62,0.32,5.17L74,311.15
							c-0.12,1.47-0.08,2.36-0.05,2.96c0.03,0.6,0.09,0.91,0.14,1.22c0.05,0.31,0.1,0.61,0.13,1.2c0.01,0.59,0.03,1.47,0.07,2.92
							l0.44-0.37c0.55,0.21,0.55,1.48,0.53,3.12c0.03,1.63,0.09,3.64,0.58,5.25l0.05-1.24c0.31,0.87,0.27,2.17,0.15,3.51
							c-0.1,1.34-0.3,2.73-0.08,3.63c0.03,0.41-0.33-0.58-0.52-1.11c0.72,4.86,0.77,0.45,1.89,3.89c-0.13,0.74-1.09-0.57-0.42,1.78
							c0.07,0.62,0.89,2.23,1.77,4.07c0.48,0.91,0.97,1.88,1.38,2.83c0.4,0.96,0.75,1.88,0.95,2.7c-0.06-0.77-0.12-1.53,0.75-0.09
							c1.08,2.3,2.09,6.72,3.97,8.35c0.1,0.32,0.1,0.46,0.05,0.5c0.6,0.79,1.42,2.16,2.33,3.35c0.91,1.2,1.78,2.29,2.28,2.66
							c-0.12,0.62,0.35,1.5,1.03,2.52c0.69,1.01,1.61,2.16,2.59,3.18c0.96,1.03,1.85,2.04,2.5,2.79c0.64,0.76,0.96,1.32,0.66,1.57
							c0.68,0.75,1.32,1.52,2.02,2.24l2.11,2.16l-0.22-0.01c1.27,1.46,2.32,2.26,3.11,2.87c0.81,0.59,1.41,0.94,2.04,1.25
							c0.6,0.66,0.02,0.34-0.09,0.35c2.03,1.95,3.14,3.05,4.34,3.85c1.19,0.81,2.31,1.53,4.47,2.56l0.11,0.69
							c1.14,0.56,6.31,5.28,11.54,7.31c-0.07,0.03-0.22,0.06-0.65-0.08c2.89,1.2,6.1,3.1,9.05,4.48c2.93,1.42,5.57,2.29,6.92,1.8
							c1.33,0.33,2.7,0.5,4.05,0.74c-5.03-1.57,0.97-0.54-1.03-1.42c1,0.23,2.24,0.72,2.93,1.09c0.7,0.33,0.83,0.57-0.41,0.29
							l-0.36-0.2c-1.17,0.74,6.28,1.87,6.03,2.4c5.12,1.01,10.24,1.65,15.3,2.02c5.07,0.38,10.09,0.24,14.98-0.22
							c-0.4-0.2-0.8-0.38-1.2-0.6c1.13-0.09,2.25-0.25,3.38-0.37c0.91,0.06,1.27,0.42-1.15,0.69c1.33,0.26,4.01-0.86,4.04-1.07
							c4.74-0.55-1.7,1.17-0.26,0.93l1.96-0.4l-0.46-0.01c0.77-0.29,1.17-0.52,1.75-0.73c0.58-0.2,1.31-0.42,2.74-0.75
							c1.84-0.27,1.03,0.23,1.75,0.09c0.01,0.05,0.26,0.02,1.1-0.23c1.4-0.34,2.78-0.74,4.18-1.1l-1.82-0.08
							c1.76-0.78,3.88-1.09,1.8-1.16c1.52,0.06,5.38-1.09,8.95-2.57c1.8-0.71,3.49-1.57,4.89-2.18c1.37-0.66,2.4-1.2,2.83-1.32
							c0.55-0.4,1.1-0.77,1.67-1.13c0.56-0.38,1.13-0.75,1.72-1.12c1.18-0.74,2.48-1.43,3.85-2.31c-0.75,0.33-1.49,0.04,0.9-1.39
							c-0.08,0.82,1.12,0.3,2.56-0.6c1.43-0.92,3.22-2.05,4.38-2.4c-1,0.38,0.56-0.89,1.97-2.1c1.41-1.21,2.59-2.45,1.11-1.74
							c1.84-1.45,0.43,0.29,1.98-0.64c3.85-4.05,9.18-8.29,13.3-13.92c-0.07-0.19-1,0.55-0.29-0.77c1-0.76,1.91-1.6,2.87-2.42
							c0.36-0.58,0.34-0.99,0.46-1.45c0.13-0.46,0.4-0.99,1.32-1.88c-0.31,0.22-0.78,0.53-0.34-0.27
							c4.05-5.42,7.11-11.71,9.54-18.19c2.44-6.5,4.27-13.18,6.16-19.87c-0.67,1.79-0.48,0.55-0.24-0.85
							c-0.24,0.9-0.42-0.09-0.69,0.06c0.46-1.86,0.95-3.73,1.36-5.62c-0.29-0.56-0.18-2.09-0.08-3.57c0.12-1.48,0.09-2.91-0.2-3.22
							l0.07,1.82c-0.35-1.22-0.77-0.39-1.26,0.67c-0.52,1.06-1.09,2.36-1.55,2.15c0.16,0.67,0.13,1.44,0.01,2.27
							c-0.15,0.83-0.42,1.73-0.67,2.68c-0.47,1.9-1.09,3.96-0.87,6.19c-0.36,0.9-0.16-0.86-0.47-0.4c0.24,1.15-0.01,2.46-0.73,4.8
							l-0.04-0.29c-0.32,1.69-0.81,3.08-1.19,4.38c-0.37,1.31-0.84,2.47-1.3,3.66c-0.46,1.19-0.94,2.4-1.57,3.72
							c-0.61,1.33-1.24,2.82-2.12,4.52l0.67-0.33c-0.74,1.48-1.02,1.74-1.44,2.39c-0.13,2.04,1.95-4.21,1.96-2.31
							c-0.45,0.41-0.97,1.27-1.53,2.36c-0.57,1.08-1.24,2.35-1.9,3.6c-0.62,1.27-1.39,2.44-2,3.38c-0.63,0.94-1.18,1.62-1.63,1.78
							c-1.37,2.13,0.87-0.34-0.51,1.8l-0.61,0.41l-0.03,0.75c-0.94,1.38-1.79,1.81-2.01,1.73c0.26-0.31,0.6-0.97,0.84-1.33
							c-0.77,0.78-1.62,2.02-2.34,3.15c-0.73,1.12-1.41,2.06-1.67,2.33c0.54-0.6,1.1-1.19,1.64-1.8c-1.01,1.4-2.09,2.87-3.28,4.31
							c-1.23,1.41-2.43,2.89-3.77,4.25c-0.65,0.69-1.3,1.39-1.95,2.07c-0.67,0.66-1.33,1.32-1.99,1.97
							c-1.27,1.34-2.59,2.53-3.75,3.75l0.53-0.16c-0.89,0.93-1.57,1.52-2.14,1.95c-0.56,0.44-1,0.74-1.46,1.04
							c-0.9,0.62-1.9,1.2-4.15,2.9l0.14-0.16c-0.77,0.86-2,1.75-3.31,2.56c1.05-0.99-2.52,1.01-1.1-0.24
							c-2.24,1.64-2.82,2.01-3.14,2.37c-0.34,0.33-0.4,0.65-1.84,1.86l-0.93,0.06c-0.48,0.44-0.73,0.71-1.16,1.04
							c-0.44,0.33-1.05,0.75-2.33,1.36c1.98-1.24-1.88,0.23,0.3-1.22c-1.43,0.42-2.61,0.9-3.64,1.39c-1.04,0.46-1.93,0.89-2.73,1.3
							c-1.59,0.83-2.89,1.37-4.36,1.23c-1.12,0.92,0.13,0.65,1.5,0.23c1.38-0.39,2.81-1.08,2.14-0.68c0.65-0.08,0.2,0.31-0.64,0.79
							c-0.85,0.45-2.11,0.95-3.02,1.2c-0.9,0.3-1.77,0.25-2.98,0.24c-0.6,0-1.29,0.03-2.11,0.14c-0.41,0.05-0.85,0.13-1.33,0.23
							c-0.49,0.08-1.02,0.18-1.59,0.32c0.46-0.1,0.47-0.18,0.93-0.28c-0.89,0.07-1.71,0.35-2.59,0.62
							c-0.44,0.14-0.89,0.27-1.37,0.38c-0.48,0.08-1,0.13-1.55,0.12c-1.09,0.82-2.77,0.46-3,1.3l4.26-0.95
							c-1.19,0.32-2.32,0.81-3.67,1.25c-1.35,0.44-2.94,0.71-5,0.76c0.3-0.2,1.48-0.56,2.29-0.78c-1.21-0.1-2.26,0.48-3.51,0.32
							c0.14-0.39,1.45-0.58,3.03-0.81c0.79-0.11,1.66-0.22,2.48-0.37c0.82-0.19,1.59-0.4,2.21-0.66c-0.65-0.06-1.84,0.33-2.75,0.52
							c-0.9,0.19-1.49,0.28-0.89-0.23c-0.86,0.66-2.03,0.77-3.35,0.87c-1.33,0.04-2.81,0.05-4.38,0.59l0.18-0.49
							c-0.5,0.13-1.54,0.38-2.47,0.39l1.66-0.66c-2.56,0.58-4.97-0.29-7.43-0.12c2.58,0.07,2.87,0.2,2.79,0.38
							c-0.08,0.19-0.54,0.44,0.56,0.58c-6.44,0.52-3.67-1.19-10.77-1.52c0.96,0.04,3.59,0.57,2.06,0.68
							c-1.35-0.17-3.12-0.58-3.91-0.94c-4.7-0.5,0.66,0.58-1.38,0.61c-1.52-0.75-2.33-0.12-4.44-0.3l0.07-0.48
							c-1.32-0.3-2.07-0.43-2.54-0.48c-0.47-0.03-0.65,0.05-0.82,0.14c-0.34,0.17-0.61,0.35-2.96-0.38l2.17-0.19
							c-0.84-0.14-1.68-0.25-2.51-0.42c0.22-0.13,0.43-0.25,0.64-0.39c-1.38-0.17-2.27-0.35-3.13-0.59
							c-0.87-0.24-1.71-0.53-2.96-1.06c0.49,0.52-0.61,0.72-2.9-0.04c-1.45-0.83,1.01-0.08-2.19-1.26c0.83-0.02,1.72,0,2.97,0.86
							c0.2-0.1,0.82-0.04,1.01-0.14c-1.57-0.82-4.09-1.6-5.24-2.04c0.43,0.19,0.95,0.42,1.19,0.59c-0.8-0.2-1.61-0.38-2.41-0.6
							l-2.38-0.71c-0.63-0.48-0.01-0.36,0.6-0.24c-0.92-0.38-1.67-0.41-2.99-1.04c0.51-0.18,0.6-0.55,2.55,0.12
							c-1.49-0.48-2.92-1.09-4.37-1.66c-0.21-0.28-1.9-1.52-1.3-1.36c-1.06-0.75-2.52-1.35-4.07-2.06c-1.5-0.77-3.15-1.55-4.46-2.67
							c-0.19-0.04-0.52-0.19-1.15-0.57c-0.65-0.49-1.26-0.98-1.86-1.47c-0.59-0.52-1.17-1.03-1.77-1.56
							c-0.6-0.52-1.24-1.02-1.92-1.54c-0.66-0.54-1.39-1.07-2.2-1.59c-0.39-0.66-0.8-1.28-1.15-1.96c-2.27-1.95,1.53,2.68-2.27-0.57
							c-2.72-2.29-0.54-1.33-1.28-2.35c-0.73-0.51-1.75-1.19-2.83-2.1c-1.06-0.91-2.1-2.12-2.96-3.52
							C100.22,369.07,100.69,369.78,101.39,370.5z M82.48,338.93c0.16,0.32,0.43,0.8,0.65,1.26c0.24,0.46,0.43,0.91,0.39,1.2
							C82.69,340.84,82.7,340.15,82.48,338.93z M79.09,283.1c0.01,0.56-0.24,1.36-0.63,2.24C78.57,284.66,78.75,283.9,79.09,283.1z
							 M205.06,213.08c-0.03,0-0.06,0-0.08,0C203.44,212.36,203.98,212.63,205.06,213.08z M208.26,214.47
							c0.35,0.07,0.35-0.01,0.24-0.12c-0.27,0.03-1-0.26-1.82-0.61C206.87,213.94,207.25,214.2,208.26,214.47z M196.3,404.04
							l-0.69,0.03C197.06,403.59,196.68,403.81,196.3,404.04z"/>
						<path class="st3" d="M78.34,289.54c-0.12,0.19-0.21,0.23-0.31,0.26C78.05,290.09,78.15,290.11,78.34,289.54z"/>
						<path class="st3" d="M118.71,385.51l0.09,0.07c0.07,0.01,0.11,0.01,0.14-0.01L118.71,385.51z"/>
						<path class="st3" d="M155.96,213.37c-0.69,0.05-1.08,0.03-1.35-0.01C154.59,213.48,154.92,213.52,155.96,213.37z"/>
						<path class="st3" d="M225.19,221.95c-0.64-0.38-1.33-0.7-1.99-1.04c0.95,0.52,1.24,0.8,1.66,1.16
							C224.88,221.95,224.6,221.58,225.19,221.95z"/>
						<path class="st3" d="M238.67,235.93c0.27,0.18,0.49,0.46,0.76,0.64l0.09-0.22C238.52,235.42,237.72,234.9,238.67,235.93z"/>
						<path class="st3" d="M226.08,224.42c-0.09,0.46,1.19,1.02,2.48,1.88c-0.08-0.05-0.15-0.1-0.22-0.16
							C229.03,225.94,227.58,225.13,226.08,224.42z"/>
						<path class="st3" d="M228.86,226.5c0.4,0.26,0.8,0.53,1.17,0.82C230.31,227.24,229.58,226.95,228.86,226.5z"/>
						<path class="st3" d="M212.45,215.9c0.63,0.4,0.64-0.28,0.95,0.04C214.37,215.79,208.62,214.5,212.45,215.9z"/>
						<polygon class="st3" points="226.39,226.21 226.21,225.5 225.26,225.37 						"/>
						<path class="st3" d="M216.12,219.85l2.12,1.24c0.01-0.09,0.31,0.01,0.66,0.15C217.56,220.53,216.13,219.69,216.12,219.85z"/>
						<path class="st3" d="M218.9,221.24c0.69,0.38,1.34,0.76,1.76,0.9C220.28,221.93,219.49,221.47,218.9,221.24z"/>
						<path class="st3" d="M223.5,224.54l-0.56-0.47l-1.48-0.89C222.15,223.63,222.85,224.04,223.5,224.54z"/>
						<path class="st3" d="M191.26,211.3l-2.66-0.33c-0.3,0.12,0.4,0.35,1.39,0.46C190.64,211.43,191.63,211.54,191.26,211.3z"/>
						<path class="st3" d="M198.76,214.5c-0.66-0.3-0.68-0.42-1.02-0.69l-0.24,0.58L198.76,214.5z"/>
						<path class="st3" d="M191.25,212.84c-0.3,0.12-3.85-0.18-0.56,0.36C190.98,213.06,193.6,213.44,191.25,212.84z"/>
						<polygon class="st3" points="151.63,212.48 152.29,212.32 151.98,211.34 						"/>
						<path class="st3" d="M120.61,228.11c2.72-1.45,0.27-0.94,2.79-2.16c0.49-0.6-2.06,1-1.54,0.43
							C120.42,227.61,119.52,228.01,120.61,228.11z"/>
						<path class="st3" d="M121.85,226.38c0.23-0.2,0.47-0.41,0.72-0.65C122.15,226.08,121.96,226.26,121.85,226.38z"/>
						<path class="st3" d="M272.27,313.21c0.14-0.69,0.2-1.38,0.3-2.07l-0.38,1.33C272.23,312.71,272.25,312.96,272.27,313.21z"/>
						<path class="st3" d="M271.65,309.2l0.66-0.48l-0.56-1.25C271.77,307.94,271.81,308.85,271.65,309.2z"/>
						<path class="st3" d="M82.07,333.32l-0.19-0.1c-0.08,0.34,0.03,0.78,0.26,1.68L82.07,333.32z"/>
						<polygon class="st3" points="92.45,357.74 92.21,357.34 92.18,358.38 						"/>
						<path class="st3" d="M107.02,374.59c-0.65-0.63-1.48-1.31-2.09-1.99C106.35,373.97,106.7,375.27,107.02,374.59z"/>
					</g>
				</g>
			</g>
		</g>
	</g>
	<g>
		<g>
			<g>
				<g>
					<g>
						<path class="st4" d="M81.2,304.66c-0.06,0.84,0.37,0.54,0.44,0.67C81.58,303.92,81.09,304.69,81.2,304.66z"/>
						<polygon class="st4" points="81.41,290.62 81.54,290.9 81.49,288.78 						"/>
						<path class="st4" d="M84.43,277.81c-1.02,1-1.26,4.61-1.97,6.85L82.21,285l0.32,1.15c0.29-1.39,0.49-3.02,0.83-4.52
							C83.7,280.14,84.04,278.74,84.43,277.81z"/>
						<path class="st4" d="M88.23,271.78c-0.41,0.29,0.33-1.48-0.67,1.47c0.09-0.13,0.12-0.17,0.17-0.25
							C87.83,272.74,87.98,272.38,88.23,271.78z"/>
						<path class="st4" d="M87.73,273C87.25,274.27,88.28,272.25,87.73,273L87.73,273z"/>
						<path class="st4" d="M90.05,267.13l-0.51,1.74c0.3-0.28,0.99-1.71,0.86-1.12C91.02,266.02,90.72,266.29,90.05,267.13z"/>
						<path class="st4" d="M90.3,265.36c-0.11,0.29-0.22,0.59-0.31,0.89C90.12,266.13,90.23,265.91,90.3,265.36z"/>
						<path class="st4" d="M89.37,268.15l0.62-1.9c-0.21,0.19-0.43,0.12-0.3,0.86C89.56,266.88,89.58,267.32,89.37,268.15z"/>
						<path class="st4" d="M88.81,269.13c-0.57,0.85-1.13,2.05-0.67,0.27c-0.63,1.62-0.73,2.37-0.58,2.3
							C87.74,271.63,88.14,270.72,88.81,269.13z"/>
						<path class="st4" d="M83.94,276.95c-0.21,0.41-0.43,0.83-0.62,1.26l-0.1,1.22c0.02-0.3,0.25-0.93,0.44-1.48
							C83.87,277.4,84.06,276.95,83.94,276.95z"/>
						<path class="st4" d="M95.71,257.49c-0.07-0.18-0.67,0.29-0.91,0.31c-0.2,0.4-0.36,0.82-0.54,1.23
							C94.68,258.47,95.47,257.44,95.71,257.49z"/>
						<path class="st4" d="M94.8,257.79l0.86-1.82C94.67,257.46,94.6,257.8,94.8,257.79z"/>
						<path class="st4" d="M89.74,264.72c-0.36,1.05-0.6,2.16-0.9,3.23c0.37-1.27,0.73-2.56,1.19-3.8L89.74,264.72z"/>
						<path class="st4" d="M99.99,251.25l-0.37,1.12c0.23-0.65,0.49-1.29,0.77-1.92L99.99,251.25z"/>
						<path class="st4" d="M103.07,247.29c-0.32,0.81,1.12-0.54,0.68,0.24c0.85-1.05,1.41-2.11,1.95-3.03
							C105.05,245.4,104.27,246.28,103.07,247.29z"/>
						<path class="st4" d="M106.68,243c-0.33,0.45-0.64,0.95-0.98,1.5C106.06,244.02,106.39,243.53,106.68,243z"/>
						<path class="st4" d="M97.62,253.19c0.16-0.07,0.53-0.18,1.26-1.03l-0.8,0.39C97.94,252.74,97.78,252.96,97.62,253.19z"/>
						<path class="st4" d="M98.05,252.56l0.03-0.01c0.5-0.69,0.85-1.17,1-1.37C98.95,251.35,98.64,251.77,98.05,252.56z"/>
						<path class="st4" d="M97.5,253.35c0.04-0.06,0.07-0.1,0.12-0.16C97.54,253.22,97.5,253.25,97.5,253.35z"/>
						<path class="st4" d="M92.56,260.24c0.38-1.14,1.4-3.42-0.11-1.53C92.27,259.6,93.13,258.52,92.56,260.24z"/>
						<path class="st4" d="M96.5,253.84c-0.44,0.56-0.83,1.16-1.25,1.74c0.12,0.03,0.46-0.21,0.25,0.35
							C95.83,255.23,96.14,254.52,96.5,253.84z"/>
						<polygon class="st4" points="96.99,252.91 96.5,253.84 96.98,253.22 						"/>
						<path class="st4" d="M103.94,245.4c0.45-0.82,1.11-1.59,1.88-2.41c-0.92,0.81-1.77,1.73-2.55,2.64
							C103.26,245.84,103.1,246.39,103.94,245.4z"/>
						<path class="st4" d="M100.96,248.78c0.03-0.05,0.08-0.12,0.11-0.18C100.96,248.68,100.89,248.75,100.96,248.78z"/>
						<path class="st4" d="M113.93,235.32c-0.06,0.02-0.12,0.04-0.19,0.06c0,0.03,0.01,0.05,0.02,0.08L113.93,235.32z"/>
						<path class="st4" d="M103.08,245.72c-0.66,0.64-0.94,1.12-1.18,1.6c0.42-0.54,0.87-1.11,1.38-1.7
							C103.28,245.52,103.25,245.49,103.08,245.72z"/>
						<path class="st4" d="M108.7,240.64c-0.41,0.26-0.85,0.58-1.28,0.95C107.83,241.34,108.66,240.83,108.7,240.64z"/>
						<path class="st4" d="M101.35,248.44c-0.02,0.04-0.04,0.08-0.07,0.12C101.54,248.38,101.48,248.38,101.35,248.44z"/>
						<path class="st4" d="M101.35,248.44c0.24-0.41,0.39-0.77,0.55-1.12c-0.32,0.46-0.6,0.89-0.83,1.28
							C101.16,248.53,101.27,248.47,101.35,248.44z"/>
						<path class="st4" d="M114.9,231.04c0.13,0.44-1.63,2.17-3.48,3.27c-1.39,1.6,0.52,1.67,2.33,1.06
							c-0.05-0.16-0.19-0.33,1.33-1.8c-0.75,0.24-3.93,2.64-2.8,1.19c0.99-1.02,1.48-1.33,1.85-1.51c0.37-0.18,0.62-0.2,1.23-0.54
							c-1.23,0.33,2.4-2.78,1.51-2.97c-0.64,0.54-1.23,1.14-1.84,1.72C114.91,231.4,115.51,230.7,114.9,231.04z"/>
						<path class="st4" d="M110.7,237.98l-0.59,0.63c0.75-0.64,1.39-0.98,2.58-1.59c0.95-1.08,1.09-1.39,1.08-1.56
							c-1.08,0.92-2.19,1.81-3.24,2.76L110.7,237.98z"/>
						<path class="st4" d="M107.32,241.31c0.14-0.81,1.56-2.36,0.29-1.81c-1.81,1.82-1,1.54-1.93,2.76
							c2.76-3.05-0.64,1.02,1.58-0.96c-0.5,0.63-0.99,1.17-1.44,1.68c0.55-0.5,1.08-0.97,1.6-1.39c-0.03,0.02-0.06,0.03-0.08,0.05
							l-0.01,0.01l0-0.01c-0.16,0.09-0.22,0.11-0.06-0.01c0.01-0.01,0.04-0.05,0.05-0.07C107.29,241.5,107.3,241.41,107.32,241.31
							c0.88-0.79,0.21-0.05-0.01,0.25c0.01,0.03,0,0.06,0.01,0.08c0,0,0.01,0,0.01-0.01c0.87-1.05,1.85-2.01,2.77-3.02
							C109.45,239.18,108.64,239.91,107.32,241.31z"/>
						<path class="st4" d="M92.79,256.33c0.1-0.09,0.13-0.07,0.16-0.06C93.05,256.01,93.08,255.9,92.79,256.33z"/>
						<path class="st4" d="M93.94,255.01c-0.11,0.29-0.11,0.59-0.68,1.4c-0.57,0.65-0.17-0.11-0.32-0.15
							c-0.23,0.56-0.84,1.93,0.32,0.46l0.11-0.28c1.04-1.34,2.64-2.85,2.53-2.57C95.33,254.07,94.87,254.27,93.94,255.01z"/>
						<path class="st4" d="M100.3,247.62c0.64-0.97,1.36-1.87,2.06-2.79l-1.44,1.09l0.23,0.08
							C99.82,247.46,100.32,247.33,100.3,247.62z"/>
						<path class="st4" d="M114.36,235.23l-0.05,0.65c0.35-0.6,0.75-1.15,1.12-1.73L114.36,235.23z"/>
						<path class="st4" d="M117.81,232.45l0.11,0.42c0.26-0.3,0.54-0.58,0.8-0.87L117.81,232.45z"/>
						<path class="st4" d="M254.7,354.16l-0.43,0.97C254.49,354.69,254.62,354.39,254.7,354.16z"/>
						<path class="st4" d="M258.36,347.46l-0.09-0.25C258.21,347.57,258.21,347.73,258.36,347.46z"/>
						<path class="st4" d="M220.09,227.95c1.04,1.1,2.08,2.45,2.18,1.99l-0.14-0.6C221.23,228.85,220.6,228.39,220.09,227.95z"/>
						<path class="st4" d="M263.98,286.92c0.02-0.15,0.03-0.3,0.05-0.46c-0.23-0.32-0.44-0.63-0.63-0.9
							C263.58,285.96,263.8,286.42,263.98,286.92z"/>
						<path class="st4" d="M265.93,287.63l0.08,2.03C266.03,289.2,266.01,288.54,265.93,287.63z"/>
						<path class="st4" d="M226.68,384.76c-0.25,0.36-0.5,0.72-0.78,1.06C227.52,384.73,226.67,385.02,226.68,384.76z"/>
						<path class="st4" d="M159.25,215.16c1.27,0.01,2.27-0.05,3.15-0.14C160.87,214.97,159.6,214.75,159.25,215.16z"/>
						<path class="st4" d="M252.17,349.33c-0.24,0.57-0.29,0.84-0.2,0.87C252.22,349.62,252.33,349.27,252.17,349.33z"/>
						<path class="st4" d="M166.01,214.72c-0.22-0.03-0.44-0.03-0.67-0.05c-0.91,0.15-1.83,0.24-2.95,0.35
							C163.53,215.07,164.81,215.13,166.01,214.72z"/>
						<path class="st4" d="M92.67,359c-0.05-0.1-0.11-0.22-0.14-0.32C92.46,358.68,92.54,358.81,92.67,359z"/>
						<path class="st4" d="M81.48,317.53c0.08,0.41,0.17,1.08,0.25,1.71C81.72,318.93,81.65,318.42,81.48,317.53z"/>
						<path class="st4" d="M133.11,223.42C132.28,223.85,132.99,223.52,133.11,223.42L133.11,223.42z"/>
						<path class="st4" d="M128.23,223.97c0.16-0.13,0.27-0.26,0.24-0.36C128.45,223.74,128.36,223.86,128.23,223.97z"/>
						<path class="st4" d="M175.44,211.86c0.03,0,0.05,0,0.08,0C175.24,211.78,175.29,211.79,175.44,211.86z"/>
						<path class="st4" d="M131.76,223.87c0.34-0.11,0.72-0.26,1.13-0.43C132.7,223.5,132.36,223.63,131.76,223.87z"/>
						<path class="st4" d="M132.02,223.97c-0.3,0.13-0.53,0.24-0.75,0.34C131.2,224.42,131.31,224.42,132.02,223.97z"/>
						<path class="st4" d="M134.29,222.86c-0.49,0.23-0.95,0.41-1.4,0.58c0.18-0.05,0.26-0.06,0.22-0.03
							C133.36,223.3,133.71,223.13,134.29,222.86z"/>
						<path class="st4" d="M159.78,399.28c-0.06-0.02-0.13-0.04-0.2-0.07C158.58,399.27,159.01,399.3,159.78,399.28z"/>
						<path class="st4" d="M242.21,240.38c-0.04-0.03-0.06-0.04-0.09-0.07c0.03,0.04,0.06,0.08,0.09,0.12L242.21,240.38z"/>
						<path class="st4" d="M244.81,242.82c-1.41-0.78-1.88-1.49-2.6-2.38c-0.04,0.57-0.07,1.12-0.13,1.69L244.81,242.82z"/>
						<path class="st4" d="M244.02,368.99l1.93-1.64c-1.49,2.71-3.13,4.23-1.15,2.81c-0.41-0.61,1.23-2.42,2.71-4.36
							c0.74-0.97,1.48-1.94,1.98-2.74c0.47-0.82,0.7-1.46,0.47-1.73l1.19-1.18c-0.28,0.38-0.26,0.49-0.54,0.86
							c2.41-2.25,0.56-2.51,2.94-5.84c0.84-1.16,1.48-1.95,1.14-1.01l1.3-2.94c0.48-0.8,0.58-0.48,0.1,0.31
							c0.76-1.43,1.43-2.92,2.15-4.37l0.02,0.05c0.14-0.71,0.46-2.29,0.65-3.04c0.69-1.04-0.12,0.62,0.16,0.4
							c0.26-0.86,0.55-1.71,0.79-2.58c0.36-0.44,0.42-0.11,0.29,0.54c-0.16,0.64-0.51,1.61-0.92,2.45c1.14-0.87,1.3-1.42,1.53-2.33
							c0.19-0.93,0.48-2.2,1.81-4.61c-0.23,0.82-0.51,1.63-0.76,2.45c0.65-0.63,1.14-1.43,1.56-2.42c0.43-0.99,0.87-2.14,1.57-3.46
							c-0.47,0.6-3.01,5.13-2.39,2.22c0.36-0.75,0.77-1.77,0.99-3.35c0.47,0.13,0.78-1.4,1.28-3.26l0.58,0.29
							c0.4-2.07-0.03-2.01-0.01-3.27c0.59-2.25,1.18-2.62,1.68-3.09c0.76-3.68-1.23,2.39-0.57-1.99c0.2-0.75,0.35-1.46,0.48-2.14
							c0.1-0.69,0.16-1.37,0.21-2.07c0.09-1.4,0.15-2.87,0.07-4.73c0.38-2.14,0.36,0.41,0.6-0.35l-0.36-1.95
							c0.05-0.47,0.19-0.31,0.27-0.23c-0.11-1.62-0.62-0.17-0.72-2.7c-0.36-0.35-0.03-1.63,0.2-3.24c0.19-1.6,0.43-3.54-0.09-5.08
							c0.12-0.78,0.42,0.35,0.65,0.1c-0.85-4.27-0.62-3.68-1.78-7.08c0.02-1.01,0.03-2.02-0.02-3.03c-0.09,2.25-1.14-0.44-2.03-2.74
							c-0.09,0.8-0.18,1.49-0.19,1.94c-0.33-1.25-0.66-2.49-1.09-3.71c0-0.48,0.3-0.15,0.7,0.41c-0.11-0.24-0.22-0.48-0.31-0.66
							c-0.08-1.4,0.44-0.79,1.01,0.11c-0.02,0.49-0.05,0.98-0.07,1.45c0.55,0.87,1.13,1.68,1.47,1.41c-0.12-0.24-0.27-0.71-0.4-1.24
							c0.15,0.23,0.27,0.37,0.31,0.24c0.03-0.14-0.15-0.53-0.47-1.12l0.5-1.02l-0.33-0.15c-0.24-1.71-0.47-3.43-0.83-5.13
							c-0.43-0.84-0.86-1.65-1.31-2.46c-0.49-0.8-0.98-1.62-1.49-2.49c-0.49-0.88-1.02-1.81-1.6-2.84
							c-0.59-1.03-1.12-2.19-1.78-3.47c1.07,1.1,0.91-0.05,1.51-0.23c0.03,0.86,0.48,1.89,1.1,3.06c0.3,0.59,0.65,1.2,0.95,1.87
							c0.29,0.67,0.56,1.37,0.77,2.1c-0.44-1.53-0.05-1.29,0.17-0.94c-0.73-1.67-1.64-3.26-2.47-4.87c0.52-0.08-0.06-1.22-0.48-2.59
							c-0.24,0.69-0.81-0.16-1.46-1.42c-0.62-1.27-1.52-2.87-2.13-3.78c0.23-0.28,0.78,0.03,1.94,2.47c-0.7-2.99-2.74-2.9-3.64-5.7
							c0.33,0.56,0.46,0.89,0.74,1.03c-0.51-0.59-1.18-1.72-1.64-2.63c-0.46-0.91-0.76-1.56-0.39-1.27l0.36,0.55
							c-0.56-0.93-1.29-2.1-2.09-3.32c-0.82-1.21-1.76-2.43-2.63-3.57c-1.82-2.2-3.49-3.92-4.04-3.88c0.06-0.11,1.16-0.23,1.45-0.12
							c-2.41-1.39-4.79-2.7-7.26-3.84c1-0.01,0.43-3.12,3.23-0.79c-0.66-0.81-1.41-1.88-3.18-3.22c0.45,0.56,0.52,1.97-0.21,1.35
							c-1.36-2.39-0.99-1.6-2.95-4.32c0.7,0.81-0.96,0.89-2.19-0.22c0.31,0.04,0.63-0.95,1.17-0.64c-1.3-0.64-2.59-1.26-3.92-1.8
							c0.94,0.48,0.74-0.63,0.2-1.46c0.1,0.22-0.61-0.34-1.46-1.04c-0.87-0.67-1.92-1.44-2.4-1.72l1.29,1.24
							c-3.75-2.89-4.69-1.38-8.57-3.84c0.6,0.08,1.95-0.53-0.05-1.84c-1.25-0.07-5.51,0.03-9.31-1.2l-0.57-0.62
							c-0.99-0.31-1.97-0.63-2.97-0.87c1.07-0.08,2.98,0.08,5.07,0.3c2.08,0.24,4.25,0.7,5.78,1.08c-1.44-1.05-0.25-0.57-2.63-1.76
							c-0.7-0.71,1.51,0.25,2.22,0.59c-1.82-1.01-3.62-2.04-5.51-2.92c-0.01,0.36-1.17,0.03-2.31-0.32c-1.16-0.3-2.33-0.6-2.32-0.3
							c2.18,0.56,4.29,1.33,6.44,2.03c-0.02,0.36-1.12,0.39-2.67,0.1c-0.78-0.13-1.66-0.39-2.63-0.65c-0.96-0.26-1.97-0.6-2.96-1.02
							c-0.93-0.66,1.19-0.82,1.19-1.06c-0.31,0.02-1.3-0.3-2.29-0.56c-0.98-0.27-1.93-0.58-2.09-0.72l1.87,0.25
							c-1.11-0.51-2.13-0.62-3.18-0.79c-1.06-0.16-2.16-0.32-3.48-1.03c-0.95-0.35-2.71-1.6-2.98-1.24c1.44,1.12,1.13,3.48-0.04,3.8
							c-0.16-0.06-1.36-0.54-2.66-1.06c-1.29-0.56-2.72-1.01-3.24-1.32c-1.51-0.88,2.68-0.98,1.4-1.73
							c-0.09,0.17-1.03,0.23-1.42,0.24c-1.01-0.34,0.53-0.48-1.75-0.81c-0.48,0.62-4.62-0.65-1.16,0.43
							c-1.12-0.04-1.7-0.15-2.34-0.29c-0.63-0.13-1.31-0.32-2.62-0.39c0.78,0.52-2.46,1.27-4.66,1.39c0.14-0.17-0.35-0.41-0.59-0.52
							c-1.13-0.04-2.13-0.1-3.06-0.16c-0.93-0.02-1.79-0.04-2.65-0.07c-0.85-0.02-1.7-0.05-2.6-0.04c-0.89,0.04-1.84,0.09-2.9,0.17
							c-0.4-0.14-2.47-0.16-1.63-0.54c-0.6,0.19-1.13,0.5-2.43,0.68c-2.6-0.26,2.9-0.46,0.89-0.92c-0.12,0.43-3.33,0.92-5.11,1.55
							c0.34,0.27,1.39,0.06,2.61-0.17c1.22-0.23,2.58-0.59,3.5-0.84c0.05,0.42-0.71,0.95-2,1.49c-0.65,0.28-1.43,0.53-2.31,0.83
							c-0.88,0.31-1.86,0.62-2.91,0.9c-1.69,0.39-2.07,0.4-2.12,0.24c-0.05-0.14,0.25-0.37-0.03-0.25c-1.6,0.33-2.72,0.66-3.57,0.99
							c-0.85,0.36-1.43,0.71-1.99,1.03c-1.11,0.64-2.1,1.15-4.73,1.75c-2.2,0.18-0.44-0.98-1.02-1.19c1.32-0.55,2.38-0.83,3.34-1.02
							c0.97-0.16,1.84-0.27,2.76-0.55l-2.35,0.4c0.82-0.42,2.62-1.07,3.66-1.2c-0.47,0.01-1.37,0.2-2.55,0.49
							c-0.59,0.15-1.24,0.32-1.94,0.51c-0.69,0.23-1.42,0.47-2.18,0.72c-0.76,0.26-1.54,0.5-2.32,0.78
							c-0.77,0.29-1.55,0.59-2.31,0.87c-1.52,0.57-2.96,1.11-4.16,1.55c-0.75,0.54-2.09,1.35-1.33,1.24l1.43-0.73
							c1.52-0.21-2.49,1.78-0.56,1.13c-0.92,0.55-1.82,1.29-2.86,1.95c-0.52,0.34-1.07,0.67-1.67,0.99
							c-0.58,0.35-1.2,0.69-1.88,1.01l-0.8-0.25c0.15,0.12,1.88-0.66,2.52-1.24c-0.93,0.87-4.45,1.53-5.16,3.01
							c0.67-0.25,1.32-0.53,2.01-0.74c-0.85,0.65-1.7,1.54-2.66,2.35c-0.97,0.8-1.97,1.66-3.09,2.34c1.32-0.19,0.45-0.42,2.38-0.9
							c-1.85,0.13,5.66-3.57,2.98-2.97c1.04-0.14,1.8-0.46,2.62-0.85c0.82-0.38,1.68-0.84,2.96-1.08c-0.16-0.14-0.97,0.06,1.03-0.85
							c0.06-0.1,0.24-0.27,0.35-0.38c0.06-0.02,0.08-0.03,0.14-0.05c-0.04,0.01-0.08,0.02-0.12,0.03c0.07-0.07,0.08-0.08-0.04,0.01
							c-0.51,0.16-0.93,0.26-1.14,0.24c0.38-0.45,1.35-1.1,2.37-1.67c1.03-0.56,2.08-1.09,2.58-1.45c1.24-0.45-0.41,0.44,0.33,0.34
							c0.49-0.36,0.99-0.71,1.5-1.03c0.34,0.35,3.51-0.58,0.75,0.79l2.58-0.99c1.62-0.32,3.76-0.93,5.01-1.53
							c1.28-0.26,3.03-1.38,2.03-0.73c0.68-0.24,1.36-0.49,2.05-0.72l2.08-0.62l0.06,0.1c2.09-0.49,4.24-0.99,6.46-1.52
							c2.25-0.37,4.61-0.73,7.08-0.46c0.71-0.11,1.44-0.24,2.29-0.32c0.85-0.05,1.83-0.08,3.04-0.05l0.48,0.38
							c0.92-0.12,2.31,0.04,3.56,0.13c1.25,0.1,2.37,0.14,2.77-0.01c0.48,0.3,1.27,0.51,2.24,0.65c0.48,0.07,1.01,0.13,1.57,0.18
							c0.55,0.06,1.14,0.13,1.73,0.2c1.18,0.14,2.42,0.2,3.54,0.37c1.12,0.17,2.15,0.33,2.93,0.52l0.22-0.48
							c1.1,0.18,2.16,0.46,3.31,0.65c0.57,0.1,1.17,0.2,1.79,0.3c0.62,0.13,1.26,0.26,1.94,0.4l-0.05-0.48
							c1.21,0.16,2.7,0.61,4.28,1.32c0.8,0.33,1.64,0.68,2.49,1.04c0.85,0.37,1.72,0.77,2.61,1.1c-0.3,0.06-1.18-0.33-1.78-0.68
							c0.97,0.65,2.02,1.15,3.11,1.57c1.08,0.45,2.19,0.86,3.3,1.24c1.12,0.36,2.19,0.82,3.22,1.28c1.02,0.47,1.99,0.98,2.78,1.68
							c0.97,0.37,1.59,0.79,2.16,1.24c-0.08-0.05-0.16-0.08-0.23-0.11c0.09,0.05,0.22,0.13,0.36,0.22c0.36,0.28,0.71,0.61,1.09,0.95
							c-0.3-0.32-0.6-0.63-0.89-0.84c0.69,0.39,1.72,1.01,2.77,1.55l0.16,0.67c0.08,0.05,0.15,0.09,0.24,0.14
							c0.87,0.77,0.91,0.31,0.59-0.32c0.55,0.24,1.04,0.5,1.45,0.65c0.3,1.2,2.72,1.55,3.21,3.04c0.43,0.08,1.65,0.94,2.88,1.74
							c1.19,0.86,2.41,1.66,2.93,1.55c-0.04,0.11,0.19,0.38-0.3-0.04c0.96,0.92,1.83,1.92,2.86,2.57l-0.02,0.83l1.33,0.7l1.29,0.76
							c0.95,1.54,1.28,2.2-0.25,1.27c0.85,0.63,1.44,1.09,1.89,1.46c0.43,0.38,0.72,0.67,1,0.94c0.55,0.55,1.07,1.01,2.5,2.16
							l-0.41,0.11c0.8,0.99,2.49,2.28,2.71,3.09c0.28,0.69,0.91,1.77,1.78,3.08c0.89,1.3,1.85,2.95,2.96,4.67
							c2.07,3.53,4.23,7.67,5.34,11.17c0.24-0.88,0.49-0.06,0.75,0.99c0.24,1.05,0.52,2.31,1,2.28c-0.1,0.5,0.13,1.5-0.53,0.48
							c0.84,1.67,1.11,3.06,1.49,4.25c0.38,1.19,0.68,2.25,1.39,3.39c-0.15,0.48-0.61-0.65-0.66-0.24c0.14,0.27,0.55,1.07,0.5,1.48
							c-0.06,0.41-0.37-0.46-0.65-0.99c0.27,0.9,0.53,1.59,0.78,2.12c0.22,0.53,0.45,0.9,0.67,1.16c0.44,0.51,0.88,0.58,1.3,0.63
							c0.03,0.99,0.12,1.71,0.3,2.35c0.15,0.64,0.39,1.2,0.77,1.85c-0.14,0.72-0.21,1.87-0.72-0.45c0.05,0.33,0.14,1,0.26,1.82
							c0.06,0.41,0.13,0.86,0.2,1.32c0.05,0.46,0.11,0.94,0.16,1.41c0.22,1.88,0.53,3.59,0.82,3.63c-0.13,0.43,0.09,1.87,0.2,2.22
							c0.1,1.5,0.13,2.32,0.13,3.13c0.01,0.81,0.03,1.62,0.1,3.09l0.08-0.82c0.83,1.16,0.18,2.47,0.21,4.85l-0.08-0.07
							c-0.15,1.36-0.3,2.19-0.35,2.75c-0.05,0.56-0.05,0.85-0.04,1.15c0.01,0.29,0.01,0.58-0.05,1.13c-0.05,0.55-0.2,1.36-0.54,2.67
							l0.51-0.23c0.48,0.31,0.18,1.49-0.24,2.97c-0.48,1.48-1.12,3.24-1.2,4.82l0.47-1.06c0.05,0.88-0.58,1.98-1.25,3.05
							c-0.68,1.07-1.37,2.11-1.69,2.9c-0.19,0.33,0.03-0.59,0.09-1.11c-1.78,4.1,0.46,0.71-0.31,3.95c-0.5,0.49-0.58-0.99-1.31,1.1
							c-0.31,0.48-0.55,2.09-0.95,3.92c-0.49,1.79-1.02,3.86-1.98,5.1c0.51-0.5,1.03-1.02,0.57,0.47c-0.86,2.24-3.62,5.34-3.96,7.59
							c-0.21,0.23-0.33,0.29-0.39,0.27c-0.37,0.83-0.98,2.18-1.64,3.4c-0.65,1.23-1.22,2.4-1.33,2.99
							c-0.56,0.14-1.24,0.78-1.91,1.69c-0.68,0.91-1.36,2.09-2.1,3.16c-0.73,1.08-1.39,2.16-2,2.85c-0.61,0.69-1.1,1.05-1.38,0.8
							c-0.6,0.7-1.18,1.43-1.81,2.12l-1.89,2.04l-0.01-0.21c-1.24,1.27-2.11,2.1-2.68,2.84c-0.58,0.72-0.9,1.3-1.25,1.85
							c-0.69,0.46-0.33-0.04-0.34-0.14c-2.08,1.59-3.17,2.5-4.19,3.35c-1.01,0.86-1.79,1.84-3.38,3.39l-0.66-0.14
							c-0.78,1-6.62,3.6-10.87,6.43c0.02-0.07,0.07-0.21,0.4-0.45c-2.4,1.6-5.66,2.76-8.49,3.68c-2.81,0.96-5.2,1.67-5.92,2.87
							c-1.14,0.58-2.34,1.01-3.52,1.51c4.8-1.22-0.49,0.95,1.55,0.69c-0.93,0.32-2.19,0.54-2.92,0.58c-0.74,0.01-0.95-0.11,0.2-0.46
							l0.38-0.02c0.62-1.07-6.05,1.12-6.07,0.41c-4.74,0.98-9.52,1.35-14.2,1.44c-4.69,0.1-9.28-0.3-13.76-0.76
							c0.32,0.28,0.63,0.58,0.96,0.84c-1.05-0.11-2.09-0.28-3.14-0.42c-0.8-0.27-1.02-0.71,1.2-0.39c-1.11-0.55-3.78-0.13-3.87-0.03
							c-4.29-1.07,1.83-0.54,0.5-0.79l-1.8-0.27l0.39,0.16c-0.75,0.02-1.18,0.1-1.75,0.11c-0.57,0.02-1.28-0.05-2.6-0.38
							c-1.64-0.53-0.75-0.64-1.4-0.82c0.02-0.05-0.2-0.12-1-0.25c-1.27-0.35-2.53-0.75-3.79-1.13l1.36,0.99
							c-1.78-0.2-3.59-1.07-2.01,0.08c-1.15-0.88-4.65-2.11-7.96-3.48c-1.66-0.66-3.25-1.42-4.55-1.99
							c-1.28-0.61-2.21-1.14-2.54-1.39c-0.6-0.19-1.18-0.4-1.77-0.63c-0.57-0.25-1.14-0.54-1.71-0.85
							c-1.15-0.61-2.34-1.28-3.59-2.15c0.57,0.51,0.61,1.31-1.56-0.18c0.78-0.32-0.18-1.04-1.41-2.04c-1.22-1.01-2.82-2.14-3.33-3.2
							c0.54,0.83-0.93-0.28-2.33-1.28c-1.39-1.01-2.63-2.01-1.81-0.68c-1.58-1.51,0.22-0.47-0.82-1.79c-4.25-3.03-8-8.1-12-13.01
							c-0.2,0.03,0.25,1.04-0.81,0.12c-0.49-1.05-0.87-2.16-1.28-3.24c-0.77-0.98-1.56-0.33-2.28-2.62c0.05,0.35,0.13,0.89-0.38,0.2
							c-3.07-5.48-6.16-11.08-8.56-17.05c-2.4-5.95-4.1-12.28-4.31-18.65c-0.03,1.74-0.27,0.63-0.51-0.67
							c0.07,0.85-0.43,0.05-0.64,0.25c-0.01-1.8-0.04-3.59,0.01-5.37c-0.37-0.45-0.49-1.88-0.6-3.25c-0.13-1.37-0.1-2.7-0.44-2.97
							l0.16,1.69c-0.4-1.11-0.81-0.31-1.2,0.75c-0.36,1.06-0.73,2.39-1.22,2.26c0.26,0.63,0.34,1.37,0.35,2.2
							c0.03,0.83,0.01,1.74-0.01,2.71c-0.07,1.94,0.11,4.09,1.09,6.07c-0.03,0.96-0.44-0.73-0.57-0.19c0.57,1,0.97,2.23,1.33,4.63
							l-0.16-0.24c0.37,1.66,0.84,3.04,1.16,4.35c0.32,1.31,0.68,2.5,1.03,3.72c0.35,1.22,0.68,2.48,1.17,3.85
							c0.47,1.38,0.96,2.93,1.73,4.7l0.2-0.71c0.62,1.52,0.63,1.9,0.84,2.66c1.43,1.41-1.87-4.23-0.44-2.98
							c0,0.59,0.3,1.55,0.74,2.68c0.45,1.13,1.13,2.38,1.75,3.64c0.6,1.27,1.34,2.44,1.81,3.47c0.49,1.01,0.79,1.85,0.77,2.29
							c1.37,2.14,0.07-0.91,1.43,1.22l0.11,0.73l0.66,0.33c0.83,1.43,1.07,2.29,0.88,2.5c-0.21-0.35-0.72-0.9-0.99-1.24
							c0.48,0.98,1.39,2.21,2.23,3.28c0.83,1.06,1.66,1.9,1.84,2.24c-0.45-0.68-0.92-1.35-1.36-2.04c1.1,1.34,2.27,2.75,3.46,4.19
							c1.25,1.4,2.45,2.89,3.8,4.24c0.66,0.69,1.33,1.37,1.98,2.05c0.7,0.64,1.39,1.27,2.07,1.89c1.34,1.26,2.79,2.32,4.14,3.31
							l-0.24-0.5c1.02,0.76,1.73,1.3,2.29,1.72c0.55,0.44,0.94,0.79,1.34,1.16c0.78,0.75,1.64,1.52,3.98,3.05l-0.2-0.07
							c1.02,0.49,2.35,1.17,3.62,2.02c-1.33-0.54,1.97,1.86,0.25,1.11c2.47,1.27,3.14,1.48,3.58,1.6c0.46,0.09,0.71,0.09,2.52,0.55
							l0.57,0.71c1.27,0.24,1.4,0.21,3.95,1.27c-2.21-0.65,1.38,1.24-1.13,0.57c1.25,0.79,2.4,1.36,3.44,1.81
							c1.05,0.42,2.02,0.69,2.87,0.94c1.7,0.53,3.04,0.85,4.13,1.84c1.44-0.06,0.28-0.6-1.04-1.09c-1.33-0.46-2.78-1.03-2.05-0.84
							c-0.52-0.39,0.06-0.36,0.97-0.15c0.93,0.18,2.2,0.52,3.04,0.86c0.87,0.31,1.51,0.88,2.53,1.49c0.5,0.31,1.1,0.65,1.85,0.98
							c0.38,0.17,0.79,0.34,1.26,0.5c0.47,0.15,0.99,0.28,1.56,0.41c-0.46-0.11-0.51-0.04-0.96-0.15c0.83,0.33,1.7,0.44,2.6,0.57
							c0.45,0.07,0.92,0.15,1.39,0.26c0.48,0.1,0.98,0.22,1.49,0.42c1.3-0.4,2.77,0.53,3.23-0.19l-4.27-0.58
							c1.22,0.11,2.44,0.04,3.82,0.08c1.38,0.04,2.95,0.07,4.91,0.56c-0.32,0.12-1.53,0.18-2.36,0.19c1.14,0.36,2.26,0.17,3.45,0.49
							c-0.21,0.4-1.52,0.3-3.11,0.1c-0.79-0.09-1.66-0.19-2.49-0.27c-0.83-0.11-1.63-0.17-2.3-0.14c0.6,0.27,1.85,0.38,2.77,0.42
							c0.92,0.04,1.52,0.1,0.8,0.44c1.02-0.42,2.16-0.24,3.47-0.01c1.31,0.18,2.8,0.38,4.41,0.09l-0.24,0.46
							c0.51-0.02,1.57-0.22,2.5-0.18l-1.71,0.57c2.61-0.46,5.01,0.63,7.51,0.23c-2.62,0.08-2.91-0.07-2.83-0.26
							c0.08-0.19,0.54-0.41-0.55-0.61c6.37-0.75,3.72,1.3,10.93,0.49c-0.97,0.17-3.69,0-2.18-0.32c1.38,0.03,3.19-0.02,4.07,0.11
							c4.74-0.7-0.79-0.39,1.19-0.94c1.7,0.39,2.28-0.59,4.29-1.12l0.1,0.47c1.35-0.15,2.1-0.33,2.54-0.52
							c0.44-0.18,0.57-0.33,0.69-0.49c0.23-0.3,0.39-0.58,2.8-0.95l-1.85,1.11c0.81-0.26,1.63-0.48,2.43-0.76l-0.37,0.67
							c1.29-0.56,2.14-0.89,3.01-1.14c0.87-0.25,1.75-0.42,3.06-0.8c-0.7-0.12,0.07-0.95,2.32-1.72c1.63-0.29-0.69,0.78,2.45-0.52
							c-0.61,0.54-1.25,1.27-2.81,1.31c-0.09,0.2-0.62,0.53-0.72,0.73c1.81-0.21,4.21-1.49,5.36-1.93
							c-0.45,0.16-0.99,0.34-1.29,0.39c0.73-0.41,1.46-0.81,2.17-1.23l2.11-1.32c0.78-0.15,0.28,0.23-0.22,0.61
							c0.89-0.48,1.44-0.92,2.73-1.62c-0.17,0.52,0.11,0.87-1.73,1.9c1.4-0.76,2.72-1.63,4.06-2.48c0.36,0.02,2.38-0.71,1.9-0.3
							c1.2-0.56,2.52-1.52,3.9-2.55c1.35-1.1,2.81-2.17,4.32-3.06c0.1-0.17,0.36-0.44,0.93-0.91c0.68-0.45,1.35-0.88,2.03-1.3
							c0.66-0.44,1.31-0.89,1.96-1.37c0.65-0.48,1.32-0.97,1.97-1.54c0.64-0.59,1.28-1.24,1.92-1.97c0.7-0.31,1.43-0.59,2.12-0.94
							c2.09-2.21-2.75,1.4,0.72-2.27c2.41-2.62,1.39-0.49,2.41-1.24c0.49-0.77,1.14-1.84,1.99-2.95c0.84-1.13,1.82-2.37,3.12-3.42
							C245.29,367.61,244.65,368.19,244.02,368.99z M262.54,336.89c-0.07,0.36-0.14,0.91-0.26,1.41c-0.14,0.5-0.31,0.96-0.54,1.16
							C261.53,338.51,262,338.01,262.54,336.89z M263.68,281.46c0.3,0.47,0.39,1.3,0.42,2.24
							C263.91,283.05,263.78,282.3,263.68,281.46z M142.48,219.17c0.03-0.02,0.04-0.03,0.06-0.05
							C144.06,218.81,143.52,218.91,142.48,219.17z M139.42,220.06c-0.27,0.18-0.23,0.23-0.08,0.25c0.16-0.19,0.82-0.47,1.6-0.73
							C140.68,219.54,140.27,219.61,139.42,220.06z M150.29,394.21l0.58,0.26C149.46,394.29,149.88,394.26,150.29,394.21z"/>
						<path class="st4" d="M265.7,287.52c-0.04,0.22-0.12,0.29-0.2,0.35C265.63,288.13,265.72,288.12,265.7,287.52z"/>
						<path class="st4" d="M226.82,384.56l-0.1,0.06c-0.03,0.06-0.05,0.1-0.04,0.14L226.82,384.56z"/>
						<path class="st4" d="M188.72,211.33c0.66,0.19,1.02,0.34,1.26,0.48C190.03,211.7,189.75,211.54,188.72,211.33z"/>
						<path class="st4" d="M124.72,228.25c0.54-0.41,1.11-0.77,1.68-1.15c-0.84,0.51-1.2,0.58-1.66,0.79
							C124.84,227.98,125.25,227.91,124.72,228.25z"/>
						<path class="st4" d="M108.72,236.69c-0.18,0.25-0.46,0.45-0.64,0.7l0.21,0.11C109.22,236.6,109.76,235.83,108.72,236.69z"/>
						<path class="st4" d="M122.27,227.92c-0.35-0.23-1.41,0.52-2.52,1.45c0.07-0.05,0.14-0.1,0.21-0.15
							C119.93,229.93,121.07,228.88,122.27,227.92z"/>
						<path class="st4" d="M119.48,229.58c-0.35,0.27-0.72,0.55-1.08,0.78C118.39,230.64,118.87,230.08,119.48,229.58z"/>
						<path class="st4" d="M135.78,221.84c-0.66,0.18-0.18,0.65-0.59,0.66C134.7,223.27,139.05,220.09,135.78,221.84z"/>
						<polygon class="st4" points="120.55,227.44 121.26,227.57 121.73,226.79 						"/>
						<path class="st4" d="M130.72,221.98l-2.14,0.94c0.07,0.06-0.17,0.24-0.48,0.44C129.39,222.72,130.83,222.09,130.72,221.98z"/>
						<path class="st4" d="M128.1,223.36c-0.67,0.34-1.27,0.72-1.59,1C126.86,224.15,127.6,223.69,128.1,223.36z"/>
						<path class="st4" d="M123.16,225.58l0.64-0.28l1.45-0.79C124.56,224.87,123.84,225.18,123.16,225.58z"/>
						<path class="st4" d="M154.39,214.04l2.48-0.59c0.23-0.22-0.47-0.2-1.4,0.04C154.89,213.71,153.98,213.95,154.39,214.04z"/>
						<path class="st4" d="M146.55,214.51c0.7-0.09,0.77,0,1.19,0.06l-0.09-0.62L146.55,214.51z"/>
						<path class="st4" d="M153.83,212.6c0.22-0.21,3.61-1.15,0.38-0.53C153.98,212.27,151.47,212.91,153.83,212.6z"/>
						<polygon class="st4" points="192.31,213.76 191.68,213.62 191.56,214.64 						"/>
						<path class="st4" d="M224.84,224.83c-2.5-1.88-0.95,0.12-3.17-1.63c-0.74-0.19,1.81,1.43,1.07,1.21
							C224.45,225.2,225.2,225.85,224.84,224.83z"/>
						<path class="st4" d="M222.74,224.41c-0.27-0.13-0.56-0.26-0.88-0.38C222.34,224.26,222.58,224.36,222.74,224.41z"/>
						<path class="st4" d="M81.35,310.55c0.01-0.63,0.09-1.27,0.14-1.9l-0.31,1.24C81.23,310.11,81.3,310.33,81.35,310.55z"/>
						<path class="st4" d="M80.48,306.92l0.64-0.46l-0.62-1.14C80.54,305.76,80.62,306.59,80.48,306.92z"/>
						<path class="st4" d="M265.46,331.98l-0.11-0.19c-0.25,0.25-0.39,0.7-0.67,1.6L265.46,331.98z"/>
						<polygon class="st4" points="253.92,356.65 254.19,356.26 253.22,356.68 						"/>
						<path class="st4" d="M240.1,374.92c0.71-0.62,1.38-1.51,2.05-2.18C240.83,374.32,239.4,374.57,240.1,374.92z"/>
					</g>
				</g>
			</g>
		</g>
	</g>
</g>
</svg>
