<?xml version="1.0" encoding="utf-8"?>
<!-- Generator: Adobe Illustrator 25.1.0, SVG Export Plug-In . SVG Version: 6.00 Build 0)  -->
<svg version="1.1" id="Layer_1" xmlns="http://www.w3.org/2000/svg" xmlns:xlink="http://www.w3.org/1999/xlink" x="0px" y="0px"
	 viewBox="0 0 100 125" style="enable-background:new 0 0 100 125;" xml:space="preserve">
<path d="M50,12C22.4,12,0,34.4,0,62s22.4,50,50,50s50-22.4,50-50S77.6,12,50,12z M70.6,79.6H29.3c-2,0.1-3.8-1.2-4.2-3.2
	c-0.1-0.3-0.1-0.7-0.1-1V48.6c-0.1-2.2,1.6-4.1,3.8-4.3c0.2,0,0.4,0,0.5,0h41.3c2.2-0.2,4.1,1.5,4.3,3.7c0,0.2,0,0.4,0,0.5
	c0,9,0,17.9,0,26.9c0.1,2.2-1.6,4.1-3.9,4.2C71,79.6,70.8,79.6,70.6,79.6z"/>
<path d="M68.9,53c0.1-0.1,0.2-0.2,0.3-0.3c0.7-0.8,0.7-2-0.1-2.7c-0.3-0.3-0.6-0.4-1-0.5c-0.7-0.1-1.5,0.1-2,0.7L51.4,64.4
	c-0.5,0.8-1.6,1-2.4,0.4c-0.2-0.1-0.3-0.3-0.4-0.4L34,50.3c-0.2-0.2-0.3-0.3-0.5-0.5c-0.8-0.7-2.1-0.6-2.8,0.2
	c-0.2,0.2-0.3,0.5-0.4,0.8c-0.2,0.7,0.1,1.5,0.7,2l8.9,8.7l0.4,0.4l-0.5,0.5L31,71.1c-0.5,0.4-0.8,1.1-0.7,1.8
	c0.1,0.8,0.6,1.4,1.3,1.6c0.8,0.3,1.7,0.1,2.2-0.5l9-8.7l0.4-0.4c1.1,1.1,2.2,2.2,3.3,3.2c1.8,2,4.9,2.1,6.8,0.3
	c0.1-0.1,0.2-0.2,0.3-0.3c1.1-1,2.2-2,3.5-3.2l0,0c0.1,0.2,0.2,0.3,0.3,0.4c2.4,2.3,4.8,4.7,7.2,7c0.6,0.6,1.3,1.2,1.9,1.8
	c0.6,0.5,1.4,0.7,2.1,0.4c0.7-0.2,1.2-0.8,1.3-1.5c0.1-0.7-0.2-1.4-0.8-1.9c-3-2.9-5.9-5.7-8.9-8.6L59.6,62c0.2-0.1,0.4-0.3,0.5-0.4
	L68.9,53z"/>
</svg>
