<?xml version="1.0" encoding="utf-8"?>
<!-- Generator: Adobe Illustrator 25.1.0, SVG Export Plug-In . SVG Version: 6.00 Build 0)  -->
<svg version="1.1" id="Layer_1" xmlns="http://www.w3.org/2000/svg" xmlns:xlink="http://www.w3.org/1999/xlink" x="0px" y="0px"
	 viewBox="0 0 36 45" style="enable-background:new 0 0 36 45;" xml:space="preserve">
<style type="text/css">
	.st0{fill:none;}
</style>
<path d="M20.6,31l-1.4-6c-0.1-0.2,0-0.5,0.2-0.6c0.2-0.2,0.4-0.2,0.6-0.2l6,1.4c0.2,0.1,0.4,0.2,0.5,0.5c0.1,0.2,0,0.5-0.2,0.6
	l-1.8,1.9l1.3,1.3c0.2,0.3,0.2,0.7-0.1,0.9c-0.2,0.2-0.6,0.2-0.9,0l-1.3-1.3l-1.8,1.8c-0.2,0.2-0.4,0.2-0.6,0.2
	C20.9,31.4,20.7,31.2,20.6,31z"/>
<path class="st0" d="M27.2,12.5H8.8c-0.7,0-1.3,0.6-1.3,1.3v0v2.6h21v-2.6C28.5,13.1,27.9,12.5,27.2,12.5z M10.1,15.1
	c-0.4,0-0.7-0.3-0.7-0.6c0-0.4,0.3-0.7,0.6-0.7c0.4,0,0.7,0.3,0.7,0.6c0,0,0,0,0,0C10.8,14.8,10.5,15.1,10.1,15.1z M12.8,15.1
	c-0.4,0-0.7-0.3-0.7-0.7s0.3-0.7,0.7-0.7c0.4,0,0.7,0.3,0.7,0.7l0,0C13.4,14.8,13.1,15.1,12.8,15.1z M15.4,15.1
	c-0.4,0-0.7-0.3-0.7-0.6s0.3-0.7,0.6-0.7s0.7,0.3,0.7,0.6c0,0,0,0,0,0C16,14.8,15.7,15.1,15.4,15.1z M25.9,15.1h-5.3
	c-0.4,0-0.7-0.3-0.7-0.7c0-0.4,0.3-0.7,0.7-0.7h5.3c0.4,0,0.7,0.3,0.7,0.7C26.5,14.8,26.2,15.1,25.9,15.1z"/>
<path class="st0" d="M7.5,32.2c0,0.7,0.6,1.3,1.3,1.3h18.4c0.7,0,1.3-0.6,1.3-1.3V17.8h-21V32.2z"/>
<path d="M12.8,13.8c-0.4,0-0.7,0.3-0.7,0.7s0.3,0.7,0.7,0.7c0.4,0,0.7-0.3,0.7-0.7l0,0C13.4,14.1,13.1,13.8,12.8,13.8z"/>
<path d="M10.1,13.8c-0.4,0-0.7,0.3-0.7,0.6c0,0.4,0.3,0.7,0.6,0.7c0.4,0,0.7-0.3,0.7-0.6c0,0,0,0,0,0C10.8,14.1,10.5,13.8,10.1,13.8
	z"/>
<path d="M18,5C8.1,5,0,13.1,0,23s8.1,18,18,18s18-8.1,18-18S27.9,5,18,5z M28.5,32.2c0,0.7-0.6,1.3-1.3,1.3H8.8
	c-0.7,0-1.3-0.6-1.3-1.3V17.8h21V32.2z M28.5,16.4h-21v-2.6c0-0.7,0.6-1.3,1.3-1.3h0h18.4c0.7,0,1.3,0.6,1.3,1.3V16.4z"/>
<path d="M25.9,13.8h-5.3c-0.4,0-0.7,0.3-0.7,0.7c0,0.4,0.3,0.7,0.7,0.7h5.3c0.4,0,0.7-0.3,0.7-0.7C26.5,14.1,26.2,13.8,25.9,13.8z"
	/>
<path d="M15.4,13.8c-0.4,0-0.7,0.3-0.7,0.6c0,0.4,0.3,0.7,0.6,0.7c0.4,0,0.7-0.3,0.7-0.6c0,0,0,0,0,0C16,14.1,15.7,13.8,15.4,13.8z"
	/>
</svg>
