<?xml version="1.0" encoding="utf-8"?>
<!-- Generator: Adobe Illustrator 25.1.0, SVG Export Plug-In . SVG Version: 6.00 Build 0)  -->
<svg version="1.1" id="Layer_1" xmlns="http://www.w3.org/2000/svg" xmlns:xlink="http://www.w3.org/1999/xlink" x="0px" y="0px"
	 viewBox="0 0 48 60" style="enable-background:new 0 0 48 60;" xml:space="preserve">
<path d="M24,33.5c1.9,0,3.5-1.6,3.5-3.5s-1.6-3.5-3.5-3.5c-1.9,0-3.5,1.6-3.5,3.5S22.1,33.5,24,33.5z M31.6,23.2
	c1.1,0,1.9-0.9,1.9-1.9c0-1.1-0.9-1.9-1.9-1.9c-1.1,0-1.9,0.9-1.9,1.9C29.7,22.4,30.5,23.2,31.6,23.2z M31,30c0,3.9-3.2,7-7,7
	s-7-3.2-7-7c0-0.8,0.1-1.6,0.4-2.3H14v9.5c0,1.6,1.3,3,3,3h13.6c1.6,0,3-1.3,3-3V24.7h-5C30.1,26,31,27.9,31,30z M24,6
	C10.7,6,0,16.7,0,30s10.7,24,24,24s24-10.7,24-24S37.3,6,24,6z M36.8,39.7c0,2.2-1.8,4-4,4H14.7c-2.2,0-4-1.8-4-4V21.6
	c0-2.2,1.8-4,4-4h18.1c2.2,0,4,1.8,4,4L36.8,39.7L36.8,39.7z"/>
</svg>
